M48
; DRILL file {KiCad 8.0.4} date 2025-09-03T21:53:32+0900
; FORMAT={-:-/ absolute / metric / decimal}
; #@! TF.CreationDate,2025-09-03T21:53:32+09:00
; #@! TF.GenerationSoftware,Kicad,Pcbnew,8.0.4
; #@! TF.FileFunction,Plated,1,2,PTH
FMAT,2
METRIC
; #@! TA.AperFunction,Plated,PTH,ViaDrill
T1C0.300
; #@! TA.AperFunction,Plated,PTH,ComponentDrill
T2C0.800
; #@! TA.AperFunction,Plated,PTH,ComponentDrill
T3C0.900
; #@! TA.AperFunction,Plated,PTH,ComponentDrill
T4C1.000
; #@! TA.AperFunction,Plated,PTH,ComponentDrill
T5C1.100
; #@! TA.AperFunction,Plated,PTH,ComponentDrill
T6C1.200
; #@! TA.AperFunction,Plated,PTH,ComponentDrill
T7C3.500
%
G90
G05
T1
X129.54Y-116.84
X134.762Y-92.306
X175.26Y-73.66
T2
X121.92Y-81.28
X121.92Y-88.9
X124.46Y-81.28
X124.46Y-88.9
X127.0Y-81.28
X127.0Y-88.9
X129.54Y-81.28
X129.54Y-88.9
X132.08Y-81.28
X132.08Y-88.9
X134.62Y-81.28
X134.62Y-88.9
X137.16Y-81.28
X137.16Y-88.9
X139.7Y-81.28
X139.7Y-88.9
X142.24Y-81.28
X142.24Y-88.9
X162.56Y-83.82
X165.1Y-83.82
X167.64Y-83.82
X170.18Y-83.82
X172.72Y-83.82
T3
X129.54Y-124.46
X130.81Y-124.46
X132.08Y-124.46
X133.35Y-124.46
T4
X101.6Y-66.04
X101.62Y-99.06
X109.22Y-99.06
X111.76Y-66.04
X119.38Y-66.04
X127.0Y-66.04
X137.16Y-66.04
X144.78Y-66.04
X152.4Y-66.04
X152.4Y-127.0
X167.64Y-66.04
X175.26Y-66.04
X175.26Y-78.74
X180.34Y-78.74
X182.88Y-66.04
T5
X151.69Y-99.35
X151.69Y-103.85
X158.19Y-99.35
X158.19Y-103.85
X164.39Y-99.35
X164.39Y-103.85
X170.89Y-99.35
X170.89Y-103.85
X177.09Y-99.35
X177.09Y-103.85
X183.59Y-99.35
X183.59Y-103.85
T6
X101.6Y-72.39
X101.6Y-85.09
X126.86Y-97.79
X126.86Y-110.49
X132.01Y-97.79
X132.01Y-110.49
X137.16Y-97.79
X137.16Y-110.49
T7
X101.6Y-124.46
X109.22Y-76.2
X149.86Y-88.9
X180.34Y-88.9
X182.88Y-124.46
M30
