%TF.GenerationSoftware,KiCad,Pcbnew,8.0.4*%
%TF.CreationDate,2025-09-03T21:54:05+09:00*%
%TF.ProjectId,3LED-3SW-BZ,334c4544-2d33-4535-972d-425a2e6b6963,rev?*%
%TF.SameCoordinates,Original*%
%TF.FileFunction,Copper,L2,Bot*%
%TF.FilePolarity,Positive*%
%FSLAX46Y46*%
G04 Gerber Fmt 4.6, Leading zero omitted, Abs format (unit mm)*
G04 Created by KiCad (PCBNEW 8.0.4) date 2025-09-03 21:54:05*
%MOMM*%
%LPD*%
G01*
G04 APERTURE LIST*
%TA.AperFunction,ComponentPad*%
%ADD10R,1.600000X1.600000*%
%TD*%
%TA.AperFunction,ComponentPad*%
%ADD11O,1.600000X1.600000*%
%TD*%
%TA.AperFunction,ComponentPad*%
%ADD12C,2.000000*%
%TD*%
%TA.AperFunction,ComponentPad*%
%ADD13C,7.000000*%
%TD*%
%TA.AperFunction,ComponentPad*%
%ADD14C,2.400000*%
%TD*%
%TA.AperFunction,ComponentPad*%
%ADD15O,2.400000X2.400000*%
%TD*%
%TA.AperFunction,ComponentPad*%
%ADD16R,2.000000X2.000000*%
%TD*%
%TA.AperFunction,ComponentPad*%
%ADD17R,1.070000X1.800000*%
%TD*%
%TA.AperFunction,ComponentPad*%
%ADD18O,1.070000X1.800000*%
%TD*%
%TA.AperFunction,ViaPad*%
%ADD19C,0.600000*%
%TD*%
%TA.AperFunction,Conductor*%
%ADD20C,0.200000*%
%TD*%
%TA.AperFunction,Conductor*%
%ADD21C,1.000000*%
%TD*%
G04 APERTURE END LIST*
D10*
%TO.P,U1,1,I1*%
%TO.N,Net-(U1-I1)*%
X142240000Y-81280000D03*
D11*
%TO.P,U1,2,I2*%
%TO.N,Net-(U1-I2)*%
X139700000Y-81280000D03*
%TO.P,U1,3,I3*%
%TO.N,Net-(U1-I3)*%
X137160000Y-81280000D03*
%TO.P,U1,4,I4*%
%TO.N,GND*%
X134620000Y-81280000D03*
%TO.P,U1,5,I5*%
X132080000Y-81280000D03*
%TO.P,U1,6,I6*%
X129540000Y-81280000D03*
%TO.P,U1,7,I7*%
X127000000Y-81280000D03*
%TO.P,U1,8,I8*%
X124460000Y-81280000D03*
%TO.P,U1,9,VCC*%
%TO.N,+5V*%
X121920000Y-81280000D03*
%TO.P,U1,10,GND*%
%TO.N,GND*%
X121920000Y-88900000D03*
%TO.P,U1,11,O8*%
%TO.N,unconnected-(U1-O8-Pad11)*%
X124460000Y-88900000D03*
%TO.P,U1,12,O7*%
%TO.N,unconnected-(U1-O7-Pad12)*%
X127000000Y-88900000D03*
%TO.P,U1,13,O6*%
%TO.N,unconnected-(U1-O6-Pad13)*%
X129540000Y-88900000D03*
%TO.P,U1,14,O5*%
%TO.N,unconnected-(U1-O5-Pad14)*%
X132080000Y-88900000D03*
%TO.P,U1,15,O4*%
%TO.N,unconnected-(U1-O4-Pad15)*%
X134620000Y-88900000D03*
%TO.P,U1,16,O3*%
%TO.N,Net-(U1-O3)*%
X137160000Y-88900000D03*
%TO.P,U1,17,O2*%
%TO.N,Net-(U1-O2)*%
X139700000Y-88900000D03*
%TO.P,U1,18,O1*%
%TO.N,Net-(U1-O1)*%
X142240000Y-88900000D03*
%TD*%
D12*
%TO.P,LED_G,1,1*%
%TO.N,Net-(U1-I3)*%
X111760000Y-66040000D03*
%TD*%
%TO.P,SW1,1,1*%
%TO.N,Net-(RN1-R4)*%
X137160000Y-66040000D03*
%TD*%
%TO.P,SW1,1,1*%
%TO.N,GND*%
X158190000Y-103850000D03*
X151690000Y-103850000D03*
%TO.P,SW1,2,2*%
%TO.N,Net-(RN1-R4)*%
X158190000Y-99350000D03*
X151690000Y-99350000D03*
%TD*%
D13*
%TO.P,REF\u002A\u002A,1*%
%TO.N,N/C*%
X101600000Y-124460000D03*
%TD*%
D12*
%TO.P,SW3,1,1*%
%TO.N,GND*%
X183590000Y-103850000D03*
X177090000Y-103850000D03*
%TO.P,SW3,2,2*%
%TO.N,Net-(RN1-R2)*%
X183590000Y-99350000D03*
X177090000Y-99350000D03*
%TD*%
D10*
%TO.P,RN1,1,common*%
%TO.N,+3.3V*%
X172720000Y-83820000D03*
D11*
%TO.P,RN1,2,R1*%
%TO.N,unconnected-(RN1-R1-Pad2)*%
X170180000Y-83820000D03*
%TO.P,RN1,3,R2*%
%TO.N,Net-(RN1-R2)*%
X167640000Y-83820000D03*
%TO.P,RN1,4,R3*%
%TO.N,Net-(RN1-R3)*%
X165100000Y-83820000D03*
%TO.P,RN1,5,R4*%
%TO.N,Net-(RN1-R4)*%
X162560000Y-83820000D03*
%TD*%
D12*
%TO.P,SW2,1,1*%
%TO.N,GND*%
X170890000Y-103850000D03*
X164390000Y-103850000D03*
%TO.P,SW2,2,2*%
%TO.N,Net-(RN1-R3)*%
X170890000Y-99350000D03*
X164390000Y-99350000D03*
%TD*%
%TO.P,GND,1,1*%
%TO.N,GND*%
X152400000Y-127000000D03*
%TD*%
%TO.P,5V,1,1*%
%TO.N,+5V*%
X180340000Y-78740000D03*
%TD*%
%TO.P,SW3,1,1*%
%TO.N,Net-(RN1-R2)*%
X152400000Y-66040000D03*
%TD*%
D13*
%TO.P,REF\u002A\u002A,1*%
%TO.N,N/C*%
X182880000Y-124460000D03*
%TD*%
D14*
%TO.P,R1,1*%
%TO.N,Net-(U1-O1)*%
X137160000Y-97790000D03*
D15*
%TO.P,R1,2*%
%TO.N,Net-(D1-RA)*%
X137160000Y-110490000D03*
%TD*%
D12*
%TO.P,3.3V,1,1*%
%TO.N,+3.3V*%
X167640000Y-66040000D03*
%TD*%
D14*
%TO.P,R2,1*%
%TO.N,Net-(U1-O3)*%
X132010000Y-97790000D03*
D15*
%TO.P,R2,2*%
%TO.N,Net-(D1-GA)*%
X132010000Y-110490000D03*
%TD*%
D12*
%TO.P,LED_R,1,1*%
%TO.N,Net-(U1-I1)*%
X127000000Y-66040000D03*
%TD*%
%TO.P,TP4,1,1*%
%TO.N,Net-(R4-Pad1)*%
X101600000Y-66040000D03*
%TD*%
%TO.P,LED_B,1,1*%
%TO.N,Net-(U1-I2)*%
X119380000Y-66040000D03*
%TD*%
D14*
%TO.P,R3,1*%
%TO.N,Net-(U1-O2)*%
X126860000Y-97790000D03*
D15*
%TO.P,R3,2*%
%TO.N,Net-(D1-BA)*%
X126860000Y-110490000D03*
%TD*%
D12*
%TO.P,3.3V,1,1*%
%TO.N,+3.3V*%
X175260000Y-78740000D03*
%TD*%
D13*
%TO.P,REF\u002A\u002A,1*%
%TO.N,N/C*%
X109220000Y-76200000D03*
%TD*%
D12*
%TO.P,5V,1,1*%
%TO.N,+5V*%
X175260000Y-66040000D03*
%TD*%
D13*
%TO.P,REF\u002A\u002A,1*%
%TO.N,N/C*%
X180340000Y-88900000D03*
%TD*%
D12*
%TO.P,SW2,1,1*%
%TO.N,Net-(RN1-R3)*%
X144780000Y-66040000D03*
%TD*%
D16*
%TO.P,BZ1,1,+*%
%TO.N,Net-(BZ1-+)*%
X101620000Y-99060000D03*
D12*
%TO.P,BZ1,2,-*%
%TO.N,GND*%
X109220000Y-99060000D03*
%TD*%
D13*
%TO.P,REF\u002A\u002A,1*%
%TO.N,N/C*%
X149860000Y-88900000D03*
%TD*%
D14*
%TO.P,R4,1*%
%TO.N,Net-(R4-Pad1)*%
X101600000Y-72390000D03*
D15*
%TO.P,R4,2*%
%TO.N,Net-(BZ1-+)*%
X101600000Y-85090000D03*
%TD*%
D12*
%TO.P,GND,1,1*%
%TO.N,GND*%
X182880000Y-66040000D03*
%TD*%
D17*
%TO.P,D1,1,GA*%
%TO.N,Net-(D1-GA)*%
X129540000Y-124460000D03*
D18*
%TO.P,D1,2,BA*%
%TO.N,Net-(D1-BA)*%
X130810000Y-124460000D03*
%TO.P,D1,3,K*%
%TO.N,GND*%
X132080000Y-124460000D03*
%TO.P,D1,4,RA*%
%TO.N,Net-(D1-RA)*%
X133350000Y-124460000D03*
%TD*%
D19*
%TO.N,Net-(D1-BA)*%
X129540000Y-116840000D03*
%TO.N,Net-(U1-O3)*%
X134762111Y-92305973D03*
%TO.N,+5V*%
X175260000Y-73660000D03*
%TD*%
D20*
%TO.N,Net-(D1-BA)*%
X130810000Y-118110000D02*
X129540000Y-116840000D01*
X130810000Y-124460000D02*
X130810000Y-118110000D01*
%TO.N,Net-(U1-O3)*%
X132010000Y-94050000D02*
X132010000Y-97790000D01*
X133754027Y-92305973D02*
X132010000Y-94050000D01*
X134762111Y-92305973D02*
X133754027Y-92305973D01*
D21*
%TO.N,+5V*%
X175260000Y-73660000D02*
X149860000Y-73660000D01*
X121920000Y-78740000D02*
X121920000Y-81280000D01*
X149860000Y-73660000D02*
X144780000Y-78740000D01*
X144780000Y-78740000D02*
X121920000Y-78740000D01*
%TD*%
%TA.AperFunction,Conductor*%
%TO.N,GND*%
G36*
X126679920Y-81034394D02*
G01*
X126627259Y-81125606D01*
X126600000Y-81227339D01*
X126600000Y-81332661D01*
X126627259Y-81434394D01*
X126679920Y-81525606D01*
X126684314Y-81530000D01*
X124775686Y-81530000D01*
X124780080Y-81525606D01*
X124832741Y-81434394D01*
X124860000Y-81332661D01*
X124860000Y-81227339D01*
X124832741Y-81125606D01*
X124780080Y-81034394D01*
X124775686Y-81030000D01*
X126684314Y-81030000D01*
X126679920Y-81034394D01*
G37*
%TD.AperFunction*%
%TA.AperFunction,Conductor*%
G36*
X129219920Y-81034394D02*
G01*
X129167259Y-81125606D01*
X129140000Y-81227339D01*
X129140000Y-81332661D01*
X129167259Y-81434394D01*
X129219920Y-81525606D01*
X129224314Y-81530000D01*
X127315686Y-81530000D01*
X127320080Y-81525606D01*
X127372741Y-81434394D01*
X127400000Y-81332661D01*
X127400000Y-81227339D01*
X127372741Y-81125606D01*
X127320080Y-81034394D01*
X127315686Y-81030000D01*
X129224314Y-81030000D01*
X129219920Y-81034394D01*
G37*
%TD.AperFunction*%
%TA.AperFunction,Conductor*%
G36*
X131759920Y-81034394D02*
G01*
X131707259Y-81125606D01*
X131680000Y-81227339D01*
X131680000Y-81332661D01*
X131707259Y-81434394D01*
X131759920Y-81525606D01*
X131764314Y-81530000D01*
X129855686Y-81530000D01*
X129860080Y-81525606D01*
X129912741Y-81434394D01*
X129940000Y-81332661D01*
X129940000Y-81227339D01*
X129912741Y-81125606D01*
X129860080Y-81034394D01*
X129855686Y-81030000D01*
X131764314Y-81030000D01*
X131759920Y-81034394D01*
G37*
%TD.AperFunction*%
%TA.AperFunction,Conductor*%
G36*
X134299920Y-81034394D02*
G01*
X134247259Y-81125606D01*
X134220000Y-81227339D01*
X134220000Y-81332661D01*
X134247259Y-81434394D01*
X134299920Y-81525606D01*
X134304314Y-81530000D01*
X132395686Y-81530000D01*
X132400080Y-81525606D01*
X132452741Y-81434394D01*
X132480000Y-81332661D01*
X132480000Y-81227339D01*
X132452741Y-81125606D01*
X132400080Y-81034394D01*
X132395686Y-81030000D01*
X134304314Y-81030000D01*
X134299920Y-81034394D01*
G37*
%TD.AperFunction*%
%TA.AperFunction,Conductor*%
G36*
X187903039Y-60979685D02*
G01*
X187948794Y-61032489D01*
X187960000Y-61084000D01*
X187960000Y-129416000D01*
X187940315Y-129483039D01*
X187887511Y-129528794D01*
X187836000Y-129540000D01*
X96644000Y-129540000D01*
X96576961Y-129520315D01*
X96531206Y-129467511D01*
X96520000Y-129416000D01*
X96520000Y-124460000D01*
X97594675Y-124460000D01*
X97613962Y-124852591D01*
X97613962Y-124852597D01*
X97613963Y-124852599D01*
X97671637Y-125241406D01*
X97767143Y-125622684D01*
X97899561Y-125992770D01*
X97899562Y-125992772D01*
X98067620Y-126348100D01*
X98218544Y-126599901D01*
X98269694Y-126685239D01*
X98503140Y-127000005D01*
X98503846Y-127000956D01*
X98767807Y-127292192D01*
X98959492Y-127465925D01*
X99059049Y-127556158D01*
X99374761Y-127790306D01*
X99374763Y-127790307D01*
X99711899Y-127992379D01*
X99711902Y-127992380D01*
X99711903Y-127992381D01*
X100067228Y-128160438D01*
X100437316Y-128292857D01*
X100818600Y-128388364D01*
X101207409Y-128446038D01*
X101600000Y-128465325D01*
X101992591Y-128446038D01*
X102381400Y-128388364D01*
X102762684Y-128292857D01*
X103132772Y-128160438D01*
X103488097Y-127992381D01*
X103825239Y-127790306D01*
X104140951Y-127556158D01*
X104432192Y-127292192D01*
X104696158Y-127000951D01*
X104696868Y-126999994D01*
X150894859Y-126999994D01*
X150894859Y-127000005D01*
X150915385Y-127247729D01*
X150915387Y-127247738D01*
X150976412Y-127488717D01*
X151076266Y-127716364D01*
X151176564Y-127869882D01*
X151917037Y-127129409D01*
X151934075Y-127192993D01*
X151999901Y-127307007D01*
X152092993Y-127400099D01*
X152207007Y-127465925D01*
X152270590Y-127482962D01*
X151529942Y-128223609D01*
X151576768Y-128260055D01*
X151576770Y-128260056D01*
X151795385Y-128378364D01*
X151795396Y-128378369D01*
X152030506Y-128459083D01*
X152275707Y-128500000D01*
X152524293Y-128500000D01*
X152769493Y-128459083D01*
X153004603Y-128378369D01*
X153004614Y-128378364D01*
X153223228Y-128260057D01*
X153223231Y-128260055D01*
X153270056Y-128223609D01*
X152529409Y-127482962D01*
X152592993Y-127465925D01*
X152707007Y-127400099D01*
X152800099Y-127307007D01*
X152865925Y-127192993D01*
X152882962Y-127129410D01*
X153623434Y-127869882D01*
X153723731Y-127716369D01*
X153823587Y-127488717D01*
X153884612Y-127247738D01*
X153884614Y-127247729D01*
X153905141Y-127000005D01*
X153905141Y-126999994D01*
X153884614Y-126752270D01*
X153884612Y-126752261D01*
X153823587Y-126511282D01*
X153723731Y-126283630D01*
X153623434Y-126130116D01*
X152882962Y-126870589D01*
X152865925Y-126807007D01*
X152800099Y-126692993D01*
X152707007Y-126599901D01*
X152592993Y-126534075D01*
X152529410Y-126517037D01*
X153270057Y-125776390D01*
X153270056Y-125776389D01*
X153223229Y-125739943D01*
X153004614Y-125621635D01*
X153004603Y-125621630D01*
X152769493Y-125540916D01*
X152524293Y-125500000D01*
X152275707Y-125500000D01*
X152030506Y-125540916D01*
X151795396Y-125621630D01*
X151795390Y-125621632D01*
X151576761Y-125739949D01*
X151529942Y-125776388D01*
X151529942Y-125776390D01*
X152270590Y-126517037D01*
X152207007Y-126534075D01*
X152092993Y-126599901D01*
X151999901Y-126692993D01*
X151934075Y-126807007D01*
X151917037Y-126870589D01*
X151176564Y-126130116D01*
X151076267Y-126283632D01*
X150976412Y-126511282D01*
X150915387Y-126752261D01*
X150915385Y-126752270D01*
X150894859Y-126999994D01*
X104696868Y-126999994D01*
X104930306Y-126685239D01*
X105132381Y-126348097D01*
X105300438Y-125992772D01*
X105432857Y-125622684D01*
X105528364Y-125241400D01*
X105586038Y-124852591D01*
X105605325Y-124460000D01*
X105586038Y-124067409D01*
X105528364Y-123678600D01*
X105486667Y-123512135D01*
X128504500Y-123512135D01*
X128504500Y-125407870D01*
X128504501Y-125407876D01*
X128510908Y-125467483D01*
X128561202Y-125602328D01*
X128561206Y-125602335D01*
X128647452Y-125717544D01*
X128647455Y-125717547D01*
X128762664Y-125803793D01*
X128762671Y-125803797D01*
X128897517Y-125854091D01*
X128897516Y-125854091D01*
X128904444Y-125854835D01*
X128957127Y-125860500D01*
X130122872Y-125860499D01*
X130182483Y-125854091D01*
X130317331Y-125803796D01*
X130317335Y-125803792D01*
X130325118Y-125799544D01*
X130326269Y-125801653D01*
X130379614Y-125781749D01*
X130435928Y-125790870D01*
X130507956Y-125820706D01*
X130507960Y-125820706D01*
X130507961Y-125820707D01*
X130708009Y-125860500D01*
X130708012Y-125860500D01*
X130911990Y-125860500D01*
X131062560Y-125830549D01*
X131112044Y-125820706D01*
X131300493Y-125742648D01*
X131376558Y-125691822D01*
X131443234Y-125670944D01*
X131510614Y-125689428D01*
X131514339Y-125691822D01*
X131589742Y-125742204D01*
X131778101Y-125820225D01*
X131778109Y-125820227D01*
X131829999Y-125830549D01*
X131830000Y-125830549D01*
X131830000Y-125017122D01*
X131832383Y-124992929D01*
X131845500Y-124926989D01*
X131845500Y-124844226D01*
X131906306Y-124879333D01*
X132020756Y-124910000D01*
X132139244Y-124910000D01*
X132253694Y-124879333D01*
X132314500Y-124844226D01*
X132314500Y-124926989D01*
X132327617Y-124992929D01*
X132330000Y-125017122D01*
X132330000Y-125830549D01*
X132381890Y-125820227D01*
X132381898Y-125820225D01*
X132570252Y-125742206D01*
X132570256Y-125742204D01*
X132645658Y-125691822D01*
X132712336Y-125670944D01*
X132779716Y-125689428D01*
X132783401Y-125691796D01*
X132859507Y-125742648D01*
X132859509Y-125742649D01*
X132859513Y-125742651D01*
X133047951Y-125820704D01*
X133047956Y-125820706D01*
X133047960Y-125820706D01*
X133047961Y-125820707D01*
X133248009Y-125860500D01*
X133248012Y-125860500D01*
X133451990Y-125860500D01*
X133602560Y-125830549D01*
X133652044Y-125820706D01*
X133840493Y-125742648D01*
X133841158Y-125742204D01*
X133916558Y-125691823D01*
X134010093Y-125629325D01*
X134154325Y-125485093D01*
X134267648Y-125315493D01*
X134345706Y-125127044D01*
X134367571Y-125017122D01*
X134385500Y-124926990D01*
X134385500Y-124460000D01*
X178874675Y-124460000D01*
X178893962Y-124852591D01*
X178893962Y-124852597D01*
X178893963Y-124852599D01*
X178951637Y-125241406D01*
X179047143Y-125622684D01*
X179179561Y-125992770D01*
X179179562Y-125992772D01*
X179347620Y-126348100D01*
X179498544Y-126599901D01*
X179549694Y-126685239D01*
X179783140Y-127000005D01*
X179783846Y-127000956D01*
X180047807Y-127292192D01*
X180239492Y-127465925D01*
X180339049Y-127556158D01*
X180654761Y-127790306D01*
X180654763Y-127790307D01*
X180991899Y-127992379D01*
X180991902Y-127992380D01*
X180991903Y-127992381D01*
X181347228Y-128160438D01*
X181717316Y-128292857D01*
X182098600Y-128388364D01*
X182487409Y-128446038D01*
X182880000Y-128465325D01*
X183272591Y-128446038D01*
X183661400Y-128388364D01*
X184042684Y-128292857D01*
X184412772Y-128160438D01*
X184768097Y-127992381D01*
X185105239Y-127790306D01*
X185420951Y-127556158D01*
X185712192Y-127292192D01*
X185976158Y-127000951D01*
X186210306Y-126685239D01*
X186412381Y-126348097D01*
X186580438Y-125992772D01*
X186712857Y-125622684D01*
X186808364Y-125241400D01*
X186866038Y-124852591D01*
X186885325Y-124460000D01*
X186866038Y-124067409D01*
X186808364Y-123678600D01*
X186712857Y-123297316D01*
X186580438Y-122927228D01*
X186412381Y-122571903D01*
X186210306Y-122234761D01*
X185976158Y-121919049D01*
X185976153Y-121919043D01*
X185712192Y-121627807D01*
X185420956Y-121363846D01*
X185105236Y-121129692D01*
X184768100Y-120927620D01*
X184412772Y-120759562D01*
X184412770Y-120759561D01*
X184042684Y-120627143D01*
X183661406Y-120531637D01*
X183661401Y-120531636D01*
X183661400Y-120531636D01*
X183517256Y-120510254D01*
X183272599Y-120473963D01*
X183272597Y-120473962D01*
X183272591Y-120473962D01*
X182880000Y-120454675D01*
X182487409Y-120473962D01*
X182487403Y-120473962D01*
X182487400Y-120473963D01*
X182098593Y-120531637D01*
X181717315Y-120627143D01*
X181347229Y-120759561D01*
X181347227Y-120759562D01*
X180991899Y-120927620D01*
X180654763Y-121129692D01*
X180339043Y-121363846D01*
X180047807Y-121627807D01*
X179783846Y-121919043D01*
X179549692Y-122234763D01*
X179347620Y-122571899D01*
X179179562Y-122927227D01*
X179179561Y-122927229D01*
X179047143Y-123297315D01*
X178951637Y-123678593D01*
X178897929Y-124040667D01*
X178893962Y-124067409D01*
X178874675Y-124460000D01*
X134385500Y-124460000D01*
X134385500Y-123993009D01*
X134345707Y-123792961D01*
X134345706Y-123792960D01*
X134345706Y-123792956D01*
X134345704Y-123792951D01*
X134267651Y-123604513D01*
X134267644Y-123604500D01*
X134154325Y-123434907D01*
X134154322Y-123434903D01*
X134010096Y-123290677D01*
X134010092Y-123290674D01*
X133840499Y-123177355D01*
X133840486Y-123177348D01*
X133652048Y-123099295D01*
X133652038Y-123099292D01*
X133451990Y-123059500D01*
X133451988Y-123059500D01*
X133248012Y-123059500D01*
X133248010Y-123059500D01*
X133047961Y-123099292D01*
X133047951Y-123099295D01*
X132859511Y-123177349D01*
X132783438Y-123228178D01*
X132716760Y-123249054D01*
X132649380Y-123230568D01*
X132645659Y-123228177D01*
X132570254Y-123177794D01*
X132381896Y-123099773D01*
X132381893Y-123099772D01*
X132330000Y-123089449D01*
X132330000Y-123902876D01*
X132327617Y-123927068D01*
X132314500Y-123993010D01*
X132314500Y-124075773D01*
X132253694Y-124040667D01*
X132139244Y-124010000D01*
X132020756Y-124010000D01*
X131906306Y-124040667D01*
X131845500Y-124075773D01*
X131845500Y-123993011D01*
X131845499Y-123993010D01*
X131832383Y-123927068D01*
X131830000Y-123902876D01*
X131830000Y-123089450D01*
X131829999Y-123089449D01*
X131778106Y-123099772D01*
X131778103Y-123099773D01*
X131584116Y-123180126D01*
X131583274Y-123178095D01*
X131524544Y-123190321D01*
X131459301Y-123165317D01*
X131417934Y-123109010D01*
X131410500Y-123066721D01*
X131410500Y-118030945D01*
X131410500Y-118030943D01*
X131369577Y-117878216D01*
X131369577Y-117878215D01*
X131369577Y-117878214D01*
X131340639Y-117828095D01*
X131340637Y-117828092D01*
X131290520Y-117741284D01*
X131178716Y-117629480D01*
X131178715Y-117629479D01*
X131174385Y-117625149D01*
X131174374Y-117625139D01*
X130370700Y-116821465D01*
X130337215Y-116760142D01*
X130335163Y-116747686D01*
X130325368Y-116660745D01*
X130265789Y-116490478D01*
X130169816Y-116337738D01*
X130042262Y-116210184D01*
X129889523Y-116114211D01*
X129719254Y-116054631D01*
X129719249Y-116054630D01*
X129540004Y-116034435D01*
X129539996Y-116034435D01*
X129360750Y-116054630D01*
X129360745Y-116054631D01*
X129190476Y-116114211D01*
X129037737Y-116210184D01*
X128910184Y-116337737D01*
X128814211Y-116490476D01*
X128754631Y-116660745D01*
X128754630Y-116660750D01*
X128734435Y-116839996D01*
X128734435Y-116840003D01*
X128754630Y-117019249D01*
X128754631Y-117019254D01*
X128814211Y-117189523D01*
X128910184Y-117342262D01*
X129037738Y-117469816D01*
X129190478Y-117565789D01*
X129360745Y-117625368D01*
X129447669Y-117635161D01*
X129512080Y-117662226D01*
X129521465Y-117670700D01*
X130173181Y-118322416D01*
X130206666Y-118383739D01*
X130209500Y-118410097D01*
X130209500Y-122935500D01*
X130189815Y-123002539D01*
X130137011Y-123048294D01*
X130085500Y-123059500D01*
X128957129Y-123059500D01*
X128957123Y-123059501D01*
X128897516Y-123065908D01*
X128762671Y-123116202D01*
X128762664Y-123116206D01*
X128647455Y-123202452D01*
X128647452Y-123202455D01*
X128561206Y-123317664D01*
X128561202Y-123317671D01*
X128510908Y-123452517D01*
X128504501Y-123512116D01*
X128504500Y-123512135D01*
X105486667Y-123512135D01*
X105432857Y-123297316D01*
X105300438Y-122927228D01*
X105132381Y-122571903D01*
X104930306Y-122234761D01*
X104696158Y-121919049D01*
X104696153Y-121919043D01*
X104432192Y-121627807D01*
X104140956Y-121363846D01*
X103825236Y-121129692D01*
X103488100Y-120927620D01*
X103132772Y-120759562D01*
X103132770Y-120759561D01*
X102762684Y-120627143D01*
X102381406Y-120531637D01*
X102381401Y-120531636D01*
X102381400Y-120531636D01*
X102237256Y-120510254D01*
X101992599Y-120473963D01*
X101992597Y-120473962D01*
X101992591Y-120473962D01*
X101600000Y-120454675D01*
X101207409Y-120473962D01*
X101207403Y-120473962D01*
X101207400Y-120473963D01*
X100818593Y-120531637D01*
X100437315Y-120627143D01*
X100067229Y-120759561D01*
X100067227Y-120759562D01*
X99711899Y-120927620D01*
X99374763Y-121129692D01*
X99059043Y-121363846D01*
X98767807Y-121627807D01*
X98503846Y-121919043D01*
X98269692Y-122234763D01*
X98067620Y-122571899D01*
X97899562Y-122927227D01*
X97899561Y-122927229D01*
X97767143Y-123297315D01*
X97671637Y-123678593D01*
X97617929Y-124040667D01*
X97613962Y-124067409D01*
X97594675Y-124460000D01*
X96520000Y-124460000D01*
X96520000Y-110489995D01*
X125154732Y-110489995D01*
X125154732Y-110490004D01*
X125173777Y-110744154D01*
X125173778Y-110744157D01*
X125230492Y-110992637D01*
X125323607Y-111229888D01*
X125451041Y-111450612D01*
X125609950Y-111649877D01*
X125796783Y-111823232D01*
X126007366Y-111966805D01*
X126007371Y-111966807D01*
X126007372Y-111966808D01*
X126007373Y-111966809D01*
X126129328Y-112025538D01*
X126236992Y-112077387D01*
X126236993Y-112077387D01*
X126236996Y-112077389D01*
X126480542Y-112152513D01*
X126732565Y-112190500D01*
X126987435Y-112190500D01*
X127239458Y-112152513D01*
X127483004Y-112077389D01*
X127712634Y-111966805D01*
X127923217Y-111823232D01*
X128110050Y-111649877D01*
X128268959Y-111450612D01*
X128396393Y-111229888D01*
X128489508Y-110992637D01*
X128546222Y-110744157D01*
X128565268Y-110490000D01*
X128565268Y-110489995D01*
X130304732Y-110489995D01*
X130304732Y-110490004D01*
X130323777Y-110744154D01*
X130323778Y-110744157D01*
X130380492Y-110992637D01*
X130473607Y-111229888D01*
X130601041Y-111450612D01*
X130759950Y-111649877D01*
X130946783Y-111823232D01*
X131157366Y-111966805D01*
X131157371Y-111966807D01*
X131157372Y-111966808D01*
X131157373Y-111966809D01*
X131279328Y-112025538D01*
X131386992Y-112077387D01*
X131386993Y-112077387D01*
X131386996Y-112077389D01*
X131630542Y-112152513D01*
X131882565Y-112190500D01*
X132137435Y-112190500D01*
X132389458Y-112152513D01*
X132633004Y-112077389D01*
X132862634Y-111966805D01*
X133073217Y-111823232D01*
X133260050Y-111649877D01*
X133418959Y-111450612D01*
X133546393Y-111229888D01*
X133639508Y-110992637D01*
X133696222Y-110744157D01*
X133715268Y-110490000D01*
X133715268Y-110489995D01*
X135454732Y-110489995D01*
X135454732Y-110490004D01*
X135473777Y-110744154D01*
X135473778Y-110744157D01*
X135530492Y-110992637D01*
X135623607Y-111229888D01*
X135751041Y-111450612D01*
X135909950Y-111649877D01*
X136096783Y-111823232D01*
X136307366Y-111966805D01*
X136307371Y-111966807D01*
X136307372Y-111966808D01*
X136307373Y-111966809D01*
X136429328Y-112025538D01*
X136536992Y-112077387D01*
X136536993Y-112077387D01*
X136536996Y-112077389D01*
X136780542Y-112152513D01*
X137032565Y-112190500D01*
X137287435Y-112190500D01*
X137539458Y-112152513D01*
X137783004Y-112077389D01*
X138012634Y-111966805D01*
X138223217Y-111823232D01*
X138410050Y-111649877D01*
X138568959Y-111450612D01*
X138696393Y-111229888D01*
X138789508Y-110992637D01*
X138846222Y-110744157D01*
X138865268Y-110490000D01*
X138846222Y-110235843D01*
X138789508Y-109987363D01*
X138696393Y-109750112D01*
X138568959Y-109529388D01*
X138410050Y-109330123D01*
X138223217Y-109156768D01*
X138012634Y-109013195D01*
X138012630Y-109013193D01*
X138012627Y-109013191D01*
X138012626Y-109013190D01*
X137783006Y-108902612D01*
X137783008Y-108902612D01*
X137539466Y-108827489D01*
X137539462Y-108827488D01*
X137539458Y-108827487D01*
X137418231Y-108809214D01*
X137287440Y-108789500D01*
X137287435Y-108789500D01*
X137032565Y-108789500D01*
X137032559Y-108789500D01*
X136875609Y-108813157D01*
X136780542Y-108827487D01*
X136780539Y-108827488D01*
X136780533Y-108827489D01*
X136536992Y-108902612D01*
X136307373Y-109013190D01*
X136307372Y-109013191D01*
X136096782Y-109156768D01*
X135909952Y-109330121D01*
X135909950Y-109330123D01*
X135751041Y-109529388D01*
X135623608Y-109750109D01*
X135530492Y-109987362D01*
X135530490Y-109987369D01*
X135473777Y-110235845D01*
X135454732Y-110489995D01*
X133715268Y-110489995D01*
X133696222Y-110235843D01*
X133639508Y-109987363D01*
X133546393Y-109750112D01*
X133418959Y-109529388D01*
X133260050Y-109330123D01*
X133073217Y-109156768D01*
X132862634Y-109013195D01*
X132862630Y-109013193D01*
X132862627Y-109013191D01*
X132862626Y-109013190D01*
X132633006Y-108902612D01*
X132633008Y-108902612D01*
X132389466Y-108827489D01*
X132389462Y-108827488D01*
X132389458Y-108827487D01*
X132268231Y-108809214D01*
X132137440Y-108789500D01*
X132137435Y-108789500D01*
X131882565Y-108789500D01*
X131882559Y-108789500D01*
X131725609Y-108813157D01*
X131630542Y-108827487D01*
X131630539Y-108827488D01*
X131630533Y-108827489D01*
X131386992Y-108902612D01*
X131157373Y-109013190D01*
X131157372Y-109013191D01*
X130946782Y-109156768D01*
X130759952Y-109330121D01*
X130759950Y-109330123D01*
X130601041Y-109529388D01*
X130473608Y-109750109D01*
X130380492Y-109987362D01*
X130380490Y-109987369D01*
X130323777Y-110235845D01*
X130304732Y-110489995D01*
X128565268Y-110489995D01*
X128546222Y-110235843D01*
X128489508Y-109987363D01*
X128396393Y-109750112D01*
X128268959Y-109529388D01*
X128110050Y-109330123D01*
X127923217Y-109156768D01*
X127712634Y-109013195D01*
X127712630Y-109013193D01*
X127712627Y-109013191D01*
X127712626Y-109013190D01*
X127483006Y-108902612D01*
X127483008Y-108902612D01*
X127239466Y-108827489D01*
X127239462Y-108827488D01*
X127239458Y-108827487D01*
X127118231Y-108809214D01*
X126987440Y-108789500D01*
X126987435Y-108789500D01*
X126732565Y-108789500D01*
X126732559Y-108789500D01*
X126575609Y-108813157D01*
X126480542Y-108827487D01*
X126480539Y-108827488D01*
X126480533Y-108827489D01*
X126236992Y-108902612D01*
X126007373Y-109013190D01*
X126007372Y-109013191D01*
X125796782Y-109156768D01*
X125609952Y-109330121D01*
X125609950Y-109330123D01*
X125451041Y-109529388D01*
X125323608Y-109750109D01*
X125230492Y-109987362D01*
X125230490Y-109987369D01*
X125173777Y-110235845D01*
X125154732Y-110489995D01*
X96520000Y-110489995D01*
X96520000Y-103849994D01*
X150184859Y-103849994D01*
X150184859Y-103850005D01*
X150205385Y-104097729D01*
X150205387Y-104097738D01*
X150266412Y-104338717D01*
X150366266Y-104566364D01*
X150466564Y-104719882D01*
X151166212Y-104020234D01*
X151177482Y-104062292D01*
X151249890Y-104187708D01*
X151352292Y-104290110D01*
X151477708Y-104362518D01*
X151519765Y-104373787D01*
X150819942Y-105073609D01*
X150866768Y-105110055D01*
X150866770Y-105110056D01*
X151085385Y-105228364D01*
X151085396Y-105228369D01*
X151320506Y-105309083D01*
X151565707Y-105350000D01*
X151814293Y-105350000D01*
X152059493Y-105309083D01*
X152294603Y-105228369D01*
X152294614Y-105228364D01*
X152513228Y-105110057D01*
X152513231Y-105110055D01*
X152560056Y-105073609D01*
X151860234Y-104373787D01*
X151902292Y-104362518D01*
X152027708Y-104290110D01*
X152130110Y-104187708D01*
X152202518Y-104062292D01*
X152213787Y-104020235D01*
X152913434Y-104719882D01*
X153013731Y-104566369D01*
X153113587Y-104338717D01*
X153174612Y-104097738D01*
X153174614Y-104097729D01*
X153195141Y-103850005D01*
X153195141Y-103849994D01*
X156684859Y-103849994D01*
X156684859Y-103850005D01*
X156705385Y-104097729D01*
X156705387Y-104097738D01*
X156766412Y-104338717D01*
X156866266Y-104566364D01*
X156966564Y-104719882D01*
X157666212Y-104020234D01*
X157677482Y-104062292D01*
X157749890Y-104187708D01*
X157852292Y-104290110D01*
X157977708Y-104362518D01*
X158019765Y-104373787D01*
X157319942Y-105073609D01*
X157366768Y-105110055D01*
X157366770Y-105110056D01*
X157585385Y-105228364D01*
X157585396Y-105228369D01*
X157820506Y-105309083D01*
X158065707Y-105350000D01*
X158314293Y-105350000D01*
X158559493Y-105309083D01*
X158794603Y-105228369D01*
X158794614Y-105228364D01*
X159013228Y-105110057D01*
X159013231Y-105110055D01*
X159060056Y-105073609D01*
X158360234Y-104373787D01*
X158402292Y-104362518D01*
X158527708Y-104290110D01*
X158630110Y-104187708D01*
X158702518Y-104062292D01*
X158713787Y-104020235D01*
X159413434Y-104719882D01*
X159513731Y-104566369D01*
X159613587Y-104338717D01*
X159674612Y-104097738D01*
X159674614Y-104097729D01*
X159695141Y-103850005D01*
X159695141Y-103849994D01*
X162884859Y-103849994D01*
X162884859Y-103850005D01*
X162905385Y-104097729D01*
X162905387Y-104097738D01*
X162966412Y-104338717D01*
X163066266Y-104566364D01*
X163166564Y-104719882D01*
X163866212Y-104020234D01*
X163877482Y-104062292D01*
X163949890Y-104187708D01*
X164052292Y-104290110D01*
X164177708Y-104362518D01*
X164219765Y-104373787D01*
X163519942Y-105073609D01*
X163566768Y-105110055D01*
X163566770Y-105110056D01*
X163785385Y-105228364D01*
X163785396Y-105228369D01*
X164020506Y-105309083D01*
X164265707Y-105350000D01*
X164514293Y-105350000D01*
X164759493Y-105309083D01*
X164994603Y-105228369D01*
X164994614Y-105228364D01*
X165213228Y-105110057D01*
X165213231Y-105110055D01*
X165260056Y-105073609D01*
X164560234Y-104373787D01*
X164602292Y-104362518D01*
X164727708Y-104290110D01*
X164830110Y-104187708D01*
X164902518Y-104062292D01*
X164913787Y-104020235D01*
X165613434Y-104719882D01*
X165713731Y-104566369D01*
X165813587Y-104338717D01*
X165874612Y-104097738D01*
X165874614Y-104097729D01*
X165895141Y-103850005D01*
X165895141Y-103849994D01*
X169384859Y-103849994D01*
X169384859Y-103850005D01*
X169405385Y-104097729D01*
X169405387Y-104097738D01*
X169466412Y-104338717D01*
X169566266Y-104566364D01*
X169666564Y-104719882D01*
X170366212Y-104020234D01*
X170377482Y-104062292D01*
X170449890Y-104187708D01*
X170552292Y-104290110D01*
X170677708Y-104362518D01*
X170719765Y-104373787D01*
X170019942Y-105073609D01*
X170066768Y-105110055D01*
X170066770Y-105110056D01*
X170285385Y-105228364D01*
X170285396Y-105228369D01*
X170520506Y-105309083D01*
X170765707Y-105350000D01*
X171014293Y-105350000D01*
X171259493Y-105309083D01*
X171494603Y-105228369D01*
X171494614Y-105228364D01*
X171713228Y-105110057D01*
X171713231Y-105110055D01*
X171760056Y-105073609D01*
X171060234Y-104373787D01*
X171102292Y-104362518D01*
X171227708Y-104290110D01*
X171330110Y-104187708D01*
X171402518Y-104062292D01*
X171413787Y-104020235D01*
X172113434Y-104719882D01*
X172213731Y-104566369D01*
X172313587Y-104338717D01*
X172374612Y-104097738D01*
X172374614Y-104097729D01*
X172395141Y-103850005D01*
X172395141Y-103849994D01*
X175584859Y-103849994D01*
X175584859Y-103850005D01*
X175605385Y-104097729D01*
X175605387Y-104097738D01*
X175666412Y-104338717D01*
X175766266Y-104566364D01*
X175866564Y-104719882D01*
X176566212Y-104020234D01*
X176577482Y-104062292D01*
X176649890Y-104187708D01*
X176752292Y-104290110D01*
X176877708Y-104362518D01*
X176919765Y-104373787D01*
X176219942Y-105073609D01*
X176266768Y-105110055D01*
X176266770Y-105110056D01*
X176485385Y-105228364D01*
X176485396Y-105228369D01*
X176720506Y-105309083D01*
X176965707Y-105350000D01*
X177214293Y-105350000D01*
X177459493Y-105309083D01*
X177694603Y-105228369D01*
X177694614Y-105228364D01*
X177913228Y-105110057D01*
X177913231Y-105110055D01*
X177960056Y-105073609D01*
X177260234Y-104373787D01*
X177302292Y-104362518D01*
X177427708Y-104290110D01*
X177530110Y-104187708D01*
X177602518Y-104062292D01*
X177613787Y-104020235D01*
X178313434Y-104719882D01*
X178413731Y-104566369D01*
X178513587Y-104338717D01*
X178574612Y-104097738D01*
X178574614Y-104097729D01*
X178595141Y-103850005D01*
X178595141Y-103849994D01*
X182084859Y-103849994D01*
X182084859Y-103850005D01*
X182105385Y-104097729D01*
X182105387Y-104097738D01*
X182166412Y-104338717D01*
X182266266Y-104566364D01*
X182366564Y-104719882D01*
X183066212Y-104020234D01*
X183077482Y-104062292D01*
X183149890Y-104187708D01*
X183252292Y-104290110D01*
X183377708Y-104362518D01*
X183419765Y-104373787D01*
X182719942Y-105073609D01*
X182766768Y-105110055D01*
X182766770Y-105110056D01*
X182985385Y-105228364D01*
X182985396Y-105228369D01*
X183220506Y-105309083D01*
X183465707Y-105350000D01*
X183714293Y-105350000D01*
X183959493Y-105309083D01*
X184194603Y-105228369D01*
X184194614Y-105228364D01*
X184413228Y-105110057D01*
X184413231Y-105110055D01*
X184460056Y-105073609D01*
X183760234Y-104373787D01*
X183802292Y-104362518D01*
X183927708Y-104290110D01*
X184030110Y-104187708D01*
X184102518Y-104062292D01*
X184113787Y-104020235D01*
X184813434Y-104719882D01*
X184913731Y-104566369D01*
X185013587Y-104338717D01*
X185074612Y-104097738D01*
X185074614Y-104097729D01*
X185095141Y-103850005D01*
X185095141Y-103849994D01*
X185074614Y-103602270D01*
X185074612Y-103602261D01*
X185013587Y-103361282D01*
X184913731Y-103133630D01*
X184813434Y-102980116D01*
X184113787Y-103679764D01*
X184102518Y-103637708D01*
X184030110Y-103512292D01*
X183927708Y-103409890D01*
X183802292Y-103337482D01*
X183760235Y-103326212D01*
X184460057Y-102626390D01*
X184460056Y-102626389D01*
X184413229Y-102589943D01*
X184194614Y-102471635D01*
X184194603Y-102471630D01*
X183959493Y-102390916D01*
X183714293Y-102350000D01*
X183465707Y-102350000D01*
X183220506Y-102390916D01*
X182985396Y-102471630D01*
X182985390Y-102471632D01*
X182766761Y-102589949D01*
X182719942Y-102626388D01*
X182719942Y-102626390D01*
X183419765Y-103326212D01*
X183377708Y-103337482D01*
X183252292Y-103409890D01*
X183149890Y-103512292D01*
X183077482Y-103637708D01*
X183066212Y-103679764D01*
X182366564Y-102980116D01*
X182266267Y-103133632D01*
X182166412Y-103361282D01*
X182105387Y-103602261D01*
X182105385Y-103602270D01*
X182084859Y-103849994D01*
X178595141Y-103849994D01*
X178574614Y-103602270D01*
X178574612Y-103602261D01*
X178513587Y-103361282D01*
X178413731Y-103133630D01*
X178313434Y-102980116D01*
X177613787Y-103679764D01*
X177602518Y-103637708D01*
X177530110Y-103512292D01*
X177427708Y-103409890D01*
X177302292Y-103337482D01*
X177260235Y-103326212D01*
X177960057Y-102626390D01*
X177960056Y-102626389D01*
X177913229Y-102589943D01*
X177694614Y-102471635D01*
X177694603Y-102471630D01*
X177459493Y-102390916D01*
X177214293Y-102350000D01*
X176965707Y-102350000D01*
X176720506Y-102390916D01*
X176485396Y-102471630D01*
X176485390Y-102471632D01*
X176266761Y-102589949D01*
X176219942Y-102626388D01*
X176219942Y-102626390D01*
X176919765Y-103326212D01*
X176877708Y-103337482D01*
X176752292Y-103409890D01*
X176649890Y-103512292D01*
X176577482Y-103637708D01*
X176566212Y-103679764D01*
X175866564Y-102980116D01*
X175766267Y-103133632D01*
X175666412Y-103361282D01*
X175605387Y-103602261D01*
X175605385Y-103602270D01*
X175584859Y-103849994D01*
X172395141Y-103849994D01*
X172374614Y-103602270D01*
X172374612Y-103602261D01*
X172313587Y-103361282D01*
X172213731Y-103133630D01*
X172113434Y-102980116D01*
X171413787Y-103679764D01*
X171402518Y-103637708D01*
X171330110Y-103512292D01*
X171227708Y-103409890D01*
X171102292Y-103337482D01*
X171060235Y-103326212D01*
X171760057Y-102626390D01*
X171760056Y-102626389D01*
X171713229Y-102589943D01*
X171494614Y-102471635D01*
X171494603Y-102471630D01*
X171259493Y-102390916D01*
X171014293Y-102350000D01*
X170765707Y-102350000D01*
X170520506Y-102390916D01*
X170285396Y-102471630D01*
X170285390Y-102471632D01*
X170066761Y-102589949D01*
X170019942Y-102626388D01*
X170019942Y-102626390D01*
X170719765Y-103326212D01*
X170677708Y-103337482D01*
X170552292Y-103409890D01*
X170449890Y-103512292D01*
X170377482Y-103637708D01*
X170366212Y-103679764D01*
X169666564Y-102980116D01*
X169566267Y-103133632D01*
X169466412Y-103361282D01*
X169405387Y-103602261D01*
X169405385Y-103602270D01*
X169384859Y-103849994D01*
X165895141Y-103849994D01*
X165874614Y-103602270D01*
X165874612Y-103602261D01*
X165813587Y-103361282D01*
X165713731Y-103133630D01*
X165613434Y-102980116D01*
X164913787Y-103679764D01*
X164902518Y-103637708D01*
X164830110Y-103512292D01*
X164727708Y-103409890D01*
X164602292Y-103337482D01*
X164560235Y-103326212D01*
X165260057Y-102626390D01*
X165260056Y-102626389D01*
X165213229Y-102589943D01*
X164994614Y-102471635D01*
X164994603Y-102471630D01*
X164759493Y-102390916D01*
X164514293Y-102350000D01*
X164265707Y-102350000D01*
X164020506Y-102390916D01*
X163785396Y-102471630D01*
X163785390Y-102471632D01*
X163566761Y-102589949D01*
X163519942Y-102626388D01*
X163519942Y-102626390D01*
X164219765Y-103326212D01*
X164177708Y-103337482D01*
X164052292Y-103409890D01*
X163949890Y-103512292D01*
X163877482Y-103637708D01*
X163866212Y-103679764D01*
X163166564Y-102980116D01*
X163066267Y-103133632D01*
X162966412Y-103361282D01*
X162905387Y-103602261D01*
X162905385Y-103602270D01*
X162884859Y-103849994D01*
X159695141Y-103849994D01*
X159674614Y-103602270D01*
X159674612Y-103602261D01*
X159613587Y-103361282D01*
X159513731Y-103133630D01*
X159413434Y-102980116D01*
X158713787Y-103679764D01*
X158702518Y-103637708D01*
X158630110Y-103512292D01*
X158527708Y-103409890D01*
X158402292Y-103337482D01*
X158360235Y-103326212D01*
X159060057Y-102626390D01*
X159060056Y-102626389D01*
X159013229Y-102589943D01*
X158794614Y-102471635D01*
X158794603Y-102471630D01*
X158559493Y-102390916D01*
X158314293Y-102350000D01*
X158065707Y-102350000D01*
X157820506Y-102390916D01*
X157585396Y-102471630D01*
X157585390Y-102471632D01*
X157366761Y-102589949D01*
X157319942Y-102626388D01*
X157319942Y-102626390D01*
X158019765Y-103326212D01*
X157977708Y-103337482D01*
X157852292Y-103409890D01*
X157749890Y-103512292D01*
X157677482Y-103637708D01*
X157666212Y-103679764D01*
X156966564Y-102980116D01*
X156866267Y-103133632D01*
X156766412Y-103361282D01*
X156705387Y-103602261D01*
X156705385Y-103602270D01*
X156684859Y-103849994D01*
X153195141Y-103849994D01*
X153174614Y-103602270D01*
X153174612Y-103602261D01*
X153113587Y-103361282D01*
X153013731Y-103133630D01*
X152913434Y-102980116D01*
X152213787Y-103679764D01*
X152202518Y-103637708D01*
X152130110Y-103512292D01*
X152027708Y-103409890D01*
X151902292Y-103337482D01*
X151860235Y-103326212D01*
X152560057Y-102626390D01*
X152560056Y-102626389D01*
X152513229Y-102589943D01*
X152294614Y-102471635D01*
X152294603Y-102471630D01*
X152059493Y-102390916D01*
X151814293Y-102350000D01*
X151565707Y-102350000D01*
X151320506Y-102390916D01*
X151085396Y-102471630D01*
X151085390Y-102471632D01*
X150866761Y-102589949D01*
X150819942Y-102626388D01*
X150819942Y-102626390D01*
X151519765Y-103326212D01*
X151477708Y-103337482D01*
X151352292Y-103409890D01*
X151249890Y-103512292D01*
X151177482Y-103637708D01*
X151166212Y-103679764D01*
X150466564Y-102980116D01*
X150366267Y-103133632D01*
X150266412Y-103361282D01*
X150205387Y-103602261D01*
X150205385Y-103602270D01*
X150184859Y-103849994D01*
X96520000Y-103849994D01*
X96520000Y-98012135D01*
X100119500Y-98012135D01*
X100119500Y-100107870D01*
X100119501Y-100107876D01*
X100125908Y-100167483D01*
X100176202Y-100302328D01*
X100176206Y-100302335D01*
X100262452Y-100417544D01*
X100262455Y-100417547D01*
X100377664Y-100503793D01*
X100377671Y-100503797D01*
X100512517Y-100554091D01*
X100512516Y-100554091D01*
X100519444Y-100554835D01*
X100572127Y-100560500D01*
X102667872Y-100560499D01*
X102727483Y-100554091D01*
X102862331Y-100503796D01*
X102977546Y-100417546D01*
X103063796Y-100302331D01*
X103114091Y-100167483D01*
X103120500Y-100107873D01*
X103120499Y-99059994D01*
X107714859Y-99059994D01*
X107714859Y-99060005D01*
X107735385Y-99307729D01*
X107735387Y-99307738D01*
X107796412Y-99548717D01*
X107896266Y-99776364D01*
X107996564Y-99929882D01*
X108737037Y-99189409D01*
X108754075Y-99252993D01*
X108819901Y-99367007D01*
X108912993Y-99460099D01*
X109027007Y-99525925D01*
X109090590Y-99542962D01*
X108349942Y-100283609D01*
X108396768Y-100320055D01*
X108396770Y-100320056D01*
X108615385Y-100438364D01*
X108615396Y-100438369D01*
X108850506Y-100519083D01*
X109095707Y-100560000D01*
X109344293Y-100560000D01*
X109589493Y-100519083D01*
X109824603Y-100438369D01*
X109824614Y-100438364D01*
X110043228Y-100320057D01*
X110043231Y-100320055D01*
X110090056Y-100283609D01*
X109349409Y-99542962D01*
X109412993Y-99525925D01*
X109527007Y-99460099D01*
X109620099Y-99367007D01*
X109685925Y-99252993D01*
X109702962Y-99189410D01*
X110443434Y-99929882D01*
X110543731Y-99776369D01*
X110643587Y-99548717D01*
X110704612Y-99307738D01*
X110704614Y-99307729D01*
X110725141Y-99060005D01*
X110725141Y-99059994D01*
X110704614Y-98812270D01*
X110704612Y-98812261D01*
X110643587Y-98571282D01*
X110543731Y-98343630D01*
X110443434Y-98190116D01*
X109702962Y-98930589D01*
X109685925Y-98867007D01*
X109620099Y-98752993D01*
X109527007Y-98659901D01*
X109412993Y-98594075D01*
X109349410Y-98577037D01*
X110090057Y-97836390D01*
X110090056Y-97836389D01*
X110043229Y-97799943D01*
X110024847Y-97789995D01*
X125154732Y-97789995D01*
X125154732Y-97790004D01*
X125173777Y-98044154D01*
X125184132Y-98089524D01*
X125230492Y-98292637D01*
X125323607Y-98529888D01*
X125451041Y-98750612D01*
X125609950Y-98949877D01*
X125796783Y-99123232D01*
X126007366Y-99266805D01*
X126007371Y-99266807D01*
X126007372Y-99266808D01*
X126007373Y-99266809D01*
X126092364Y-99307738D01*
X126236992Y-99377387D01*
X126236993Y-99377387D01*
X126236996Y-99377389D01*
X126480542Y-99452513D01*
X126732565Y-99490500D01*
X126987435Y-99490500D01*
X127239458Y-99452513D01*
X127483004Y-99377389D01*
X127712634Y-99266805D01*
X127923217Y-99123232D01*
X128110050Y-98949877D01*
X128268959Y-98750612D01*
X128396393Y-98529888D01*
X128489508Y-98292637D01*
X128546222Y-98044157D01*
X128561792Y-97836388D01*
X128565268Y-97790004D01*
X128565268Y-97789995D01*
X130304732Y-97789995D01*
X130304732Y-97790004D01*
X130323777Y-98044154D01*
X130334132Y-98089524D01*
X130380492Y-98292637D01*
X130473607Y-98529888D01*
X130601041Y-98750612D01*
X130759950Y-98949877D01*
X130946783Y-99123232D01*
X131157366Y-99266805D01*
X131157371Y-99266807D01*
X131157372Y-99266808D01*
X131157373Y-99266809D01*
X131242364Y-99307738D01*
X131386992Y-99377387D01*
X131386993Y-99377387D01*
X131386996Y-99377389D01*
X131630542Y-99452513D01*
X131882565Y-99490500D01*
X132137435Y-99490500D01*
X132389458Y-99452513D01*
X132633004Y-99377389D01*
X132862634Y-99266805D01*
X133073217Y-99123232D01*
X133260050Y-98949877D01*
X133418959Y-98750612D01*
X133546393Y-98529888D01*
X133639508Y-98292637D01*
X133696222Y-98044157D01*
X133711792Y-97836388D01*
X133715268Y-97790004D01*
X133715268Y-97789995D01*
X135454732Y-97789995D01*
X135454732Y-97790004D01*
X135473777Y-98044154D01*
X135484132Y-98089524D01*
X135530492Y-98292637D01*
X135623607Y-98529888D01*
X135751041Y-98750612D01*
X135909950Y-98949877D01*
X136096783Y-99123232D01*
X136307366Y-99266805D01*
X136307371Y-99266807D01*
X136307372Y-99266808D01*
X136307373Y-99266809D01*
X136392364Y-99307738D01*
X136536992Y-99377387D01*
X136536993Y-99377387D01*
X136536996Y-99377389D01*
X136780542Y-99452513D01*
X137032565Y-99490500D01*
X137287435Y-99490500D01*
X137539458Y-99452513D01*
X137783004Y-99377389D01*
X137839890Y-99349994D01*
X150184357Y-99349994D01*
X150184357Y-99350005D01*
X150204890Y-99597812D01*
X150204892Y-99597824D01*
X150265936Y-99838881D01*
X150365826Y-100066606D01*
X150501833Y-100274782D01*
X150534245Y-100309991D01*
X150670256Y-100457738D01*
X150866491Y-100610474D01*
X151085190Y-100728828D01*
X151320386Y-100809571D01*
X151565665Y-100850500D01*
X151814335Y-100850500D01*
X152059614Y-100809571D01*
X152294810Y-100728828D01*
X152513509Y-100610474D01*
X152709744Y-100457738D01*
X152878164Y-100274785D01*
X153014173Y-100066607D01*
X153114063Y-99838881D01*
X153175108Y-99597821D01*
X153179177Y-99548717D01*
X153195643Y-99350005D01*
X153195643Y-99349994D01*
X156684357Y-99349994D01*
X156684357Y-99350005D01*
X156704890Y-99597812D01*
X156704892Y-99597824D01*
X156765936Y-99838881D01*
X156865826Y-100066606D01*
X157001833Y-100274782D01*
X157034245Y-100309991D01*
X157170256Y-100457738D01*
X157366491Y-100610474D01*
X157585190Y-100728828D01*
X157820386Y-100809571D01*
X158065665Y-100850500D01*
X158314335Y-100850500D01*
X158559614Y-100809571D01*
X158794810Y-100728828D01*
X159013509Y-100610474D01*
X159209744Y-100457738D01*
X159378164Y-100274785D01*
X159514173Y-100066607D01*
X159614063Y-99838881D01*
X159675108Y-99597821D01*
X159679177Y-99548717D01*
X159695643Y-99350005D01*
X159695643Y-99349994D01*
X162884357Y-99349994D01*
X162884357Y-99350005D01*
X162904890Y-99597812D01*
X162904892Y-99597824D01*
X162965936Y-99838881D01*
X163065826Y-100066606D01*
X163201833Y-100274782D01*
X163234245Y-100309991D01*
X163370256Y-100457738D01*
X163566491Y-100610474D01*
X163785190Y-100728828D01*
X164020386Y-100809571D01*
X164265665Y-100850500D01*
X164514335Y-100850500D01*
X164759614Y-100809571D01*
X164994810Y-100728828D01*
X165213509Y-100610474D01*
X165409744Y-100457738D01*
X165578164Y-100274785D01*
X165714173Y-100066607D01*
X165814063Y-99838881D01*
X165875108Y-99597821D01*
X165879177Y-99548717D01*
X165895643Y-99350005D01*
X165895643Y-99349994D01*
X169384357Y-99349994D01*
X169384357Y-99350005D01*
X169404890Y-99597812D01*
X169404892Y-99597824D01*
X169465936Y-99838881D01*
X169565826Y-100066606D01*
X169701833Y-100274782D01*
X169734245Y-100309991D01*
X169870256Y-100457738D01*
X170066491Y-100610474D01*
X170285190Y-100728828D01*
X170520386Y-100809571D01*
X170765665Y-100850500D01*
X171014335Y-100850500D01*
X171259614Y-100809571D01*
X171494810Y-100728828D01*
X171713509Y-100610474D01*
X171909744Y-100457738D01*
X172078164Y-100274785D01*
X172214173Y-100066607D01*
X172314063Y-99838881D01*
X172375108Y-99597821D01*
X172379177Y-99548717D01*
X172395643Y-99350005D01*
X172395643Y-99349994D01*
X175584357Y-99349994D01*
X175584357Y-99350005D01*
X175604890Y-99597812D01*
X175604892Y-99597824D01*
X175665936Y-99838881D01*
X175765826Y-100066606D01*
X175901833Y-100274782D01*
X175934245Y-100309991D01*
X176070256Y-100457738D01*
X176266491Y-100610474D01*
X176485190Y-100728828D01*
X176720386Y-100809571D01*
X176965665Y-100850500D01*
X177214335Y-100850500D01*
X177459614Y-100809571D01*
X177694810Y-100728828D01*
X177913509Y-100610474D01*
X178109744Y-100457738D01*
X178278164Y-100274785D01*
X178414173Y-100066607D01*
X178514063Y-99838881D01*
X178575108Y-99597821D01*
X178579177Y-99548717D01*
X178595643Y-99350005D01*
X178595643Y-99349994D01*
X182084357Y-99349994D01*
X182084357Y-99350005D01*
X182104890Y-99597812D01*
X182104892Y-99597824D01*
X182165936Y-99838881D01*
X182265826Y-100066606D01*
X182401833Y-100274782D01*
X182434245Y-100309991D01*
X182570256Y-100457738D01*
X182766491Y-100610474D01*
X182985190Y-100728828D01*
X183220386Y-100809571D01*
X183465665Y-100850500D01*
X183714335Y-100850500D01*
X183959614Y-100809571D01*
X184194810Y-100728828D01*
X184413509Y-100610474D01*
X184609744Y-100457738D01*
X184778164Y-100274785D01*
X184914173Y-100066607D01*
X185014063Y-99838881D01*
X185075108Y-99597821D01*
X185079177Y-99548717D01*
X185095643Y-99350005D01*
X185095643Y-99349994D01*
X185075109Y-99102187D01*
X185075107Y-99102175D01*
X185014063Y-98861118D01*
X184914173Y-98633393D01*
X184778166Y-98425217D01*
X184756557Y-98401744D01*
X184609744Y-98242262D01*
X184413509Y-98089526D01*
X184413507Y-98089525D01*
X184413506Y-98089524D01*
X184194811Y-97971172D01*
X184194802Y-97971169D01*
X183959616Y-97890429D01*
X183714335Y-97849500D01*
X183465665Y-97849500D01*
X183220383Y-97890429D01*
X182985197Y-97971169D01*
X182985188Y-97971172D01*
X182766493Y-98089524D01*
X182570257Y-98242261D01*
X182401833Y-98425217D01*
X182265826Y-98633393D01*
X182165936Y-98861118D01*
X182104892Y-99102175D01*
X182104890Y-99102187D01*
X182084357Y-99349994D01*
X178595643Y-99349994D01*
X178575109Y-99102187D01*
X178575107Y-99102175D01*
X178514063Y-98861118D01*
X178414173Y-98633393D01*
X178278166Y-98425217D01*
X178256557Y-98401744D01*
X178109744Y-98242262D01*
X177913509Y-98089526D01*
X177913507Y-98089525D01*
X177913506Y-98089524D01*
X177694811Y-97971172D01*
X177694802Y-97971169D01*
X177459616Y-97890429D01*
X177214335Y-97849500D01*
X176965665Y-97849500D01*
X176720383Y-97890429D01*
X176485197Y-97971169D01*
X176485188Y-97971172D01*
X176266493Y-98089524D01*
X176070257Y-98242261D01*
X175901833Y-98425217D01*
X175765826Y-98633393D01*
X175665936Y-98861118D01*
X175604892Y-99102175D01*
X175604890Y-99102187D01*
X175584357Y-99349994D01*
X172395643Y-99349994D01*
X172375109Y-99102187D01*
X172375107Y-99102175D01*
X172314063Y-98861118D01*
X172214173Y-98633393D01*
X172078166Y-98425217D01*
X172056557Y-98401744D01*
X171909744Y-98242262D01*
X171713509Y-98089526D01*
X171713507Y-98089525D01*
X171713506Y-98089524D01*
X171494811Y-97971172D01*
X171494802Y-97971169D01*
X171259616Y-97890429D01*
X171014335Y-97849500D01*
X170765665Y-97849500D01*
X170520383Y-97890429D01*
X170285197Y-97971169D01*
X170285188Y-97971172D01*
X170066493Y-98089524D01*
X169870257Y-98242261D01*
X169701833Y-98425217D01*
X169565826Y-98633393D01*
X169465936Y-98861118D01*
X169404892Y-99102175D01*
X169404890Y-99102187D01*
X169384357Y-99349994D01*
X165895643Y-99349994D01*
X165875109Y-99102187D01*
X165875107Y-99102175D01*
X165814063Y-98861118D01*
X165714173Y-98633393D01*
X165578166Y-98425217D01*
X165556557Y-98401744D01*
X165409744Y-98242262D01*
X165213509Y-98089526D01*
X165213507Y-98089525D01*
X165213506Y-98089524D01*
X164994811Y-97971172D01*
X164994802Y-97971169D01*
X164759616Y-97890429D01*
X164514335Y-97849500D01*
X164265665Y-97849500D01*
X164020383Y-97890429D01*
X163785197Y-97971169D01*
X163785188Y-97971172D01*
X163566493Y-98089524D01*
X163370257Y-98242261D01*
X163201833Y-98425217D01*
X163065826Y-98633393D01*
X162965936Y-98861118D01*
X162904892Y-99102175D01*
X162904890Y-99102187D01*
X162884357Y-99349994D01*
X159695643Y-99349994D01*
X159675109Y-99102187D01*
X159675107Y-99102175D01*
X159614063Y-98861118D01*
X159514173Y-98633393D01*
X159378166Y-98425217D01*
X159356557Y-98401744D01*
X159209744Y-98242262D01*
X159013509Y-98089526D01*
X159013507Y-98089525D01*
X159013506Y-98089524D01*
X158794811Y-97971172D01*
X158794802Y-97971169D01*
X158559616Y-97890429D01*
X158314335Y-97849500D01*
X158065665Y-97849500D01*
X157820383Y-97890429D01*
X157585197Y-97971169D01*
X157585188Y-97971172D01*
X157366493Y-98089524D01*
X157170257Y-98242261D01*
X157001833Y-98425217D01*
X156865826Y-98633393D01*
X156765936Y-98861118D01*
X156704892Y-99102175D01*
X156704890Y-99102187D01*
X156684357Y-99349994D01*
X153195643Y-99349994D01*
X153175109Y-99102187D01*
X153175107Y-99102175D01*
X153114063Y-98861118D01*
X153014173Y-98633393D01*
X152878166Y-98425217D01*
X152856557Y-98401744D01*
X152709744Y-98242262D01*
X152513509Y-98089526D01*
X152513507Y-98089525D01*
X152513506Y-98089524D01*
X152294811Y-97971172D01*
X152294802Y-97971169D01*
X152059616Y-97890429D01*
X151814335Y-97849500D01*
X151565665Y-97849500D01*
X151320383Y-97890429D01*
X151085197Y-97971169D01*
X151085188Y-97971172D01*
X150866493Y-98089524D01*
X150670257Y-98242261D01*
X150501833Y-98425217D01*
X150365826Y-98633393D01*
X150265936Y-98861118D01*
X150204892Y-99102175D01*
X150204890Y-99102187D01*
X150184357Y-99349994D01*
X137839890Y-99349994D01*
X138012634Y-99266805D01*
X138223217Y-99123232D01*
X138410050Y-98949877D01*
X138568959Y-98750612D01*
X138696393Y-98529888D01*
X138789508Y-98292637D01*
X138846222Y-98044157D01*
X138861792Y-97836388D01*
X138865268Y-97790004D01*
X138865268Y-97789995D01*
X138846222Y-97535845D01*
X138789509Y-97287369D01*
X138789508Y-97287363D01*
X138696393Y-97050112D01*
X138568959Y-96829388D01*
X138410050Y-96630123D01*
X138223217Y-96456768D01*
X138012634Y-96313195D01*
X138012628Y-96313192D01*
X138012627Y-96313191D01*
X138012626Y-96313190D01*
X137783006Y-96202612D01*
X137783008Y-96202612D01*
X137539466Y-96127489D01*
X137539462Y-96127488D01*
X137539458Y-96127487D01*
X137418231Y-96109214D01*
X137287440Y-96089500D01*
X137287435Y-96089500D01*
X137032565Y-96089500D01*
X137032559Y-96089500D01*
X136875609Y-96113157D01*
X136780542Y-96127487D01*
X136780539Y-96127488D01*
X136780533Y-96127489D01*
X136536992Y-96202612D01*
X136307373Y-96313190D01*
X136307372Y-96313191D01*
X136096782Y-96456768D01*
X135909952Y-96630121D01*
X135909950Y-96630123D01*
X135751041Y-96829388D01*
X135623608Y-97050109D01*
X135530492Y-97287362D01*
X135530490Y-97287369D01*
X135473777Y-97535845D01*
X135454732Y-97789995D01*
X133715268Y-97789995D01*
X133696222Y-97535845D01*
X133639509Y-97287369D01*
X133639508Y-97287363D01*
X133546393Y-97050112D01*
X133418959Y-96829388D01*
X133260050Y-96630123D01*
X133073217Y-96456768D01*
X132862634Y-96313195D01*
X132862631Y-96313194D01*
X132862629Y-96313192D01*
X132680698Y-96225579D01*
X132628839Y-96178757D01*
X132610500Y-96113859D01*
X132610500Y-94350097D01*
X132630185Y-94283058D01*
X132646819Y-94262416D01*
X133966444Y-92942792D01*
X134027767Y-92909307D01*
X134054125Y-92906473D01*
X134179699Y-92906473D01*
X134246738Y-92926158D01*
X134257014Y-92933528D01*
X134259847Y-92935787D01*
X134259849Y-92935789D01*
X134412589Y-93031762D01*
X134582856Y-93091341D01*
X134582861Y-93091342D01*
X134762107Y-93111538D01*
X134762111Y-93111538D01*
X134762115Y-93111538D01*
X134941360Y-93091342D01*
X134941363Y-93091341D01*
X134941366Y-93091341D01*
X135111633Y-93031762D01*
X135264373Y-92935789D01*
X135391927Y-92808235D01*
X135487900Y-92655495D01*
X135547479Y-92485228D01*
X135547480Y-92485222D01*
X135567676Y-92305976D01*
X135567676Y-92305969D01*
X135547480Y-92126723D01*
X135547479Y-92126718D01*
X135487899Y-91956449D01*
X135391926Y-91803710D01*
X135264373Y-91676157D01*
X135111634Y-91580184D01*
X134941365Y-91520604D01*
X134941360Y-91520603D01*
X134762115Y-91500408D01*
X134762107Y-91500408D01*
X134582861Y-91520603D01*
X134582856Y-91520604D01*
X134412587Y-91580184D01*
X134259847Y-91676158D01*
X134257014Y-91678418D01*
X134254835Y-91679307D01*
X134253953Y-91679862D01*
X134253855Y-91679707D01*
X134192328Y-91704828D01*
X134179699Y-91705473D01*
X133840697Y-91705473D01*
X133840681Y-91705472D01*
X133833085Y-91705472D01*
X133674970Y-91705472D01*
X133598606Y-91725934D01*
X133522241Y-91746396D01*
X133522236Y-91746399D01*
X133385317Y-91825448D01*
X133385309Y-91825454D01*
X131529481Y-93681282D01*
X131529479Y-93681285D01*
X131479361Y-93768094D01*
X131479359Y-93768096D01*
X131450425Y-93818209D01*
X131450424Y-93818210D01*
X131450423Y-93818215D01*
X131409499Y-93970943D01*
X131409499Y-93970945D01*
X131409499Y-94139046D01*
X131409500Y-94139059D01*
X131409500Y-96113859D01*
X131389815Y-96180898D01*
X131339302Y-96225579D01*
X131157370Y-96313192D01*
X130946782Y-96456768D01*
X130759952Y-96630121D01*
X130759950Y-96630123D01*
X130601041Y-96829388D01*
X130473608Y-97050109D01*
X130380492Y-97287362D01*
X130380490Y-97287369D01*
X130323777Y-97535845D01*
X130304732Y-97789995D01*
X128565268Y-97789995D01*
X128546222Y-97535845D01*
X128489509Y-97287369D01*
X128489508Y-97287363D01*
X128396393Y-97050112D01*
X128268959Y-96829388D01*
X128110050Y-96630123D01*
X127923217Y-96456768D01*
X127712634Y-96313195D01*
X127712628Y-96313192D01*
X127712627Y-96313191D01*
X127712626Y-96313190D01*
X127483006Y-96202612D01*
X127483008Y-96202612D01*
X127239466Y-96127489D01*
X127239462Y-96127488D01*
X127239458Y-96127487D01*
X127118231Y-96109214D01*
X126987440Y-96089500D01*
X126987435Y-96089500D01*
X126732565Y-96089500D01*
X126732559Y-96089500D01*
X126575609Y-96113157D01*
X126480542Y-96127487D01*
X126480539Y-96127488D01*
X126480533Y-96127489D01*
X126236992Y-96202612D01*
X126007373Y-96313190D01*
X126007372Y-96313191D01*
X125796782Y-96456768D01*
X125609952Y-96630121D01*
X125609950Y-96630123D01*
X125451041Y-96829388D01*
X125323608Y-97050109D01*
X125230492Y-97287362D01*
X125230490Y-97287369D01*
X125173777Y-97535845D01*
X125154732Y-97789995D01*
X110024847Y-97789995D01*
X109824614Y-97681635D01*
X109824603Y-97681630D01*
X109589493Y-97600916D01*
X109344293Y-97560000D01*
X109095707Y-97560000D01*
X108850506Y-97600916D01*
X108615396Y-97681630D01*
X108615390Y-97681632D01*
X108396761Y-97799949D01*
X108349942Y-97836388D01*
X108349942Y-97836390D01*
X109090590Y-98577037D01*
X109027007Y-98594075D01*
X108912993Y-98659901D01*
X108819901Y-98752993D01*
X108754075Y-98867007D01*
X108737037Y-98930589D01*
X107996564Y-98190116D01*
X107896267Y-98343632D01*
X107796412Y-98571282D01*
X107735387Y-98812261D01*
X107735385Y-98812270D01*
X107714859Y-99059994D01*
X103120499Y-99059994D01*
X103120499Y-98012128D01*
X103114091Y-97952517D01*
X103070778Y-97836390D01*
X103063797Y-97817671D01*
X103063793Y-97817664D01*
X102977547Y-97702455D01*
X102977544Y-97702452D01*
X102862335Y-97616206D01*
X102862328Y-97616202D01*
X102727482Y-97565908D01*
X102727483Y-97565908D01*
X102667883Y-97559501D01*
X102667881Y-97559500D01*
X102667873Y-97559500D01*
X102667864Y-97559500D01*
X100572129Y-97559500D01*
X100572123Y-97559501D01*
X100512516Y-97565908D01*
X100377671Y-97616202D01*
X100377664Y-97616206D01*
X100262455Y-97702452D01*
X100262452Y-97702455D01*
X100176206Y-97817664D01*
X100176202Y-97817671D01*
X100125908Y-97952517D01*
X100123903Y-97971172D01*
X100119501Y-98012123D01*
X100119500Y-98012135D01*
X96520000Y-98012135D01*
X96520000Y-88649999D01*
X120641127Y-88649999D01*
X120641128Y-88650000D01*
X121604314Y-88650000D01*
X121599920Y-88654394D01*
X121547259Y-88745606D01*
X121520000Y-88847339D01*
X121520000Y-88952661D01*
X121547259Y-89054394D01*
X121599920Y-89145606D01*
X121604314Y-89150000D01*
X120641128Y-89150000D01*
X120693730Y-89346317D01*
X120693734Y-89346326D01*
X120789865Y-89552482D01*
X120920342Y-89738820D01*
X121081179Y-89899657D01*
X121267517Y-90030134D01*
X121473673Y-90126265D01*
X121473682Y-90126269D01*
X121669999Y-90178872D01*
X121670000Y-90178871D01*
X121670000Y-89215686D01*
X121674394Y-89220080D01*
X121765606Y-89272741D01*
X121867339Y-89300000D01*
X121972661Y-89300000D01*
X122074394Y-89272741D01*
X122165606Y-89220080D01*
X122170000Y-89215686D01*
X122170000Y-90178872D01*
X122366317Y-90126269D01*
X122366326Y-90126265D01*
X122572482Y-90030134D01*
X122758820Y-89899657D01*
X122919657Y-89738820D01*
X123050132Y-89552484D01*
X123077341Y-89494134D01*
X123123513Y-89441695D01*
X123190707Y-89422542D01*
X123257588Y-89442757D01*
X123302106Y-89494133D01*
X123329431Y-89552732D01*
X123329432Y-89552734D01*
X123459954Y-89739141D01*
X123620858Y-89900045D01*
X123620861Y-89900047D01*
X123807266Y-90030568D01*
X124013504Y-90126739D01*
X124233308Y-90185635D01*
X124395230Y-90199801D01*
X124459998Y-90205468D01*
X124460000Y-90205468D01*
X124460002Y-90205468D01*
X124516673Y-90200509D01*
X124686692Y-90185635D01*
X124906496Y-90126739D01*
X125112734Y-90030568D01*
X125299139Y-89900047D01*
X125460047Y-89739139D01*
X125590568Y-89552734D01*
X125617618Y-89494724D01*
X125663790Y-89442285D01*
X125730983Y-89423133D01*
X125797865Y-89443348D01*
X125842382Y-89494725D01*
X125869429Y-89552728D01*
X125869432Y-89552734D01*
X125999954Y-89739141D01*
X126160858Y-89900045D01*
X126160861Y-89900047D01*
X126347266Y-90030568D01*
X126553504Y-90126739D01*
X126773308Y-90185635D01*
X126935230Y-90199801D01*
X126999998Y-90205468D01*
X127000000Y-90205468D01*
X127000002Y-90205468D01*
X127056673Y-90200509D01*
X127226692Y-90185635D01*
X127446496Y-90126739D01*
X127652734Y-90030568D01*
X127839139Y-89900047D01*
X128000047Y-89739139D01*
X128130568Y-89552734D01*
X128157618Y-89494724D01*
X128203790Y-89442285D01*
X128270983Y-89423133D01*
X128337865Y-89443348D01*
X128382382Y-89494725D01*
X128409429Y-89552728D01*
X128409432Y-89552734D01*
X128539954Y-89739141D01*
X128700858Y-89900045D01*
X128700861Y-89900047D01*
X128887266Y-90030568D01*
X129093504Y-90126739D01*
X129313308Y-90185635D01*
X129475230Y-90199801D01*
X129539998Y-90205468D01*
X129540000Y-90205468D01*
X129540002Y-90205468D01*
X129596673Y-90200509D01*
X129766692Y-90185635D01*
X129986496Y-90126739D01*
X130192734Y-90030568D01*
X130379139Y-89900047D01*
X130540047Y-89739139D01*
X130670568Y-89552734D01*
X130697618Y-89494724D01*
X130743790Y-89442285D01*
X130810983Y-89423133D01*
X130877865Y-89443348D01*
X130922382Y-89494725D01*
X130949429Y-89552728D01*
X130949432Y-89552734D01*
X131079954Y-89739141D01*
X131240858Y-89900045D01*
X131240861Y-89900047D01*
X131427266Y-90030568D01*
X131633504Y-90126739D01*
X131853308Y-90185635D01*
X132015230Y-90199801D01*
X132079998Y-90205468D01*
X132080000Y-90205468D01*
X132080002Y-90205468D01*
X132136673Y-90200509D01*
X132306692Y-90185635D01*
X132526496Y-90126739D01*
X132732734Y-90030568D01*
X132919139Y-89900047D01*
X133080047Y-89739139D01*
X133210568Y-89552734D01*
X133237618Y-89494724D01*
X133283790Y-89442285D01*
X133350983Y-89423133D01*
X133417865Y-89443348D01*
X133462382Y-89494725D01*
X133489429Y-89552728D01*
X133489432Y-89552734D01*
X133619954Y-89739141D01*
X133780858Y-89900045D01*
X133780861Y-89900047D01*
X133967266Y-90030568D01*
X134173504Y-90126739D01*
X134393308Y-90185635D01*
X134555230Y-90199801D01*
X134619998Y-90205468D01*
X134620000Y-90205468D01*
X134620002Y-90205468D01*
X134676673Y-90200509D01*
X134846692Y-90185635D01*
X135066496Y-90126739D01*
X135272734Y-90030568D01*
X135459139Y-89900047D01*
X135620047Y-89739139D01*
X135750568Y-89552734D01*
X135777618Y-89494724D01*
X135823790Y-89442285D01*
X135890983Y-89423133D01*
X135957865Y-89443348D01*
X136002382Y-89494725D01*
X136029429Y-89552728D01*
X136029432Y-89552734D01*
X136159954Y-89739141D01*
X136320858Y-89900045D01*
X136320861Y-89900047D01*
X136507266Y-90030568D01*
X136713504Y-90126739D01*
X136933308Y-90185635D01*
X137095230Y-90199801D01*
X137159998Y-90205468D01*
X137160000Y-90205468D01*
X137160002Y-90205468D01*
X137216673Y-90200509D01*
X137386692Y-90185635D01*
X137606496Y-90126739D01*
X137812734Y-90030568D01*
X137999139Y-89900047D01*
X138160047Y-89739139D01*
X138290568Y-89552734D01*
X138317618Y-89494724D01*
X138363790Y-89442285D01*
X138430983Y-89423133D01*
X138497865Y-89443348D01*
X138542382Y-89494725D01*
X138569429Y-89552728D01*
X138569432Y-89552734D01*
X138699954Y-89739141D01*
X138860858Y-89900045D01*
X138860861Y-89900047D01*
X139047266Y-90030568D01*
X139253504Y-90126739D01*
X139473308Y-90185635D01*
X139635230Y-90199801D01*
X139699998Y-90205468D01*
X139700000Y-90205468D01*
X139700002Y-90205468D01*
X139756673Y-90200509D01*
X139926692Y-90185635D01*
X140146496Y-90126739D01*
X140352734Y-90030568D01*
X140539139Y-89900047D01*
X140700047Y-89739139D01*
X140830568Y-89552734D01*
X140857618Y-89494724D01*
X140903790Y-89442285D01*
X140970983Y-89423133D01*
X141037865Y-89443348D01*
X141082382Y-89494725D01*
X141109429Y-89552728D01*
X141109432Y-89552734D01*
X141239954Y-89739141D01*
X141400858Y-89900045D01*
X141400861Y-89900047D01*
X141587266Y-90030568D01*
X141793504Y-90126739D01*
X142013308Y-90185635D01*
X142175230Y-90199801D01*
X142239998Y-90205468D01*
X142240000Y-90205468D01*
X142240002Y-90205468D01*
X142296673Y-90200509D01*
X142466692Y-90185635D01*
X142686496Y-90126739D01*
X142892734Y-90030568D01*
X143079139Y-89900047D01*
X143240047Y-89739139D01*
X143370568Y-89552734D01*
X143466739Y-89346496D01*
X143525635Y-89126692D01*
X143545468Y-88900000D01*
X145854675Y-88900000D01*
X145873962Y-89292591D01*
X145873962Y-89292597D01*
X145873963Y-89292599D01*
X145931637Y-89681406D01*
X146027143Y-90062684D01*
X146159561Y-90432770D01*
X146159562Y-90432772D01*
X146327620Y-90788100D01*
X146529692Y-91125236D01*
X146763846Y-91440956D01*
X147027807Y-91732192D01*
X147275239Y-91956451D01*
X147319049Y-91996158D01*
X147634761Y-92230306D01*
X147634763Y-92230307D01*
X147971899Y-92432379D01*
X147971902Y-92432380D01*
X147971903Y-92432381D01*
X148327228Y-92600438D01*
X148697316Y-92732857D01*
X149078600Y-92828364D01*
X149467409Y-92886038D01*
X149860000Y-92905325D01*
X150252591Y-92886038D01*
X150641400Y-92828364D01*
X151022684Y-92732857D01*
X151392772Y-92600438D01*
X151748097Y-92432381D01*
X152085239Y-92230306D01*
X152400951Y-91996158D01*
X152692192Y-91732192D01*
X152956158Y-91440951D01*
X153190306Y-91125239D01*
X153392381Y-90788097D01*
X153560438Y-90432772D01*
X153692857Y-90062684D01*
X153788364Y-89681400D01*
X153846038Y-89292591D01*
X153865325Y-88900000D01*
X176334675Y-88900000D01*
X176353962Y-89292591D01*
X176353962Y-89292597D01*
X176353963Y-89292599D01*
X176411637Y-89681406D01*
X176507143Y-90062684D01*
X176639561Y-90432770D01*
X176639562Y-90432772D01*
X176807620Y-90788100D01*
X177009692Y-91125236D01*
X177243846Y-91440956D01*
X177507807Y-91732192D01*
X177755239Y-91956451D01*
X177799049Y-91996158D01*
X178114761Y-92230306D01*
X178114763Y-92230307D01*
X178451899Y-92432379D01*
X178451902Y-92432380D01*
X178451903Y-92432381D01*
X178807228Y-92600438D01*
X179177316Y-92732857D01*
X179558600Y-92828364D01*
X179947409Y-92886038D01*
X180340000Y-92905325D01*
X180732591Y-92886038D01*
X181121400Y-92828364D01*
X181502684Y-92732857D01*
X181872772Y-92600438D01*
X182228097Y-92432381D01*
X182565239Y-92230306D01*
X182880951Y-91996158D01*
X183172192Y-91732192D01*
X183436158Y-91440951D01*
X183670306Y-91125239D01*
X183872381Y-90788097D01*
X184040438Y-90432772D01*
X184172857Y-90062684D01*
X184268364Y-89681400D01*
X184326038Y-89292591D01*
X184345325Y-88900000D01*
X184326038Y-88507409D01*
X184268364Y-88118600D01*
X184172857Y-87737316D01*
X184040438Y-87367228D01*
X183872381Y-87011903D01*
X183670306Y-86674761D01*
X183436158Y-86359049D01*
X183436153Y-86359043D01*
X183172192Y-86067807D01*
X182880956Y-85803846D01*
X182596164Y-85592630D01*
X182565239Y-85569694D01*
X182565236Y-85569692D01*
X182228100Y-85367620D01*
X181872772Y-85199562D01*
X181872770Y-85199561D01*
X181502684Y-85067143D01*
X181121406Y-84971637D01*
X181121401Y-84971636D01*
X181121400Y-84971636D01*
X180977256Y-84950254D01*
X180732599Y-84913963D01*
X180732597Y-84913962D01*
X180732591Y-84913962D01*
X180340000Y-84894675D01*
X179947409Y-84913962D01*
X179947403Y-84913962D01*
X179947400Y-84913963D01*
X179558593Y-84971637D01*
X179177315Y-85067143D01*
X178807229Y-85199561D01*
X178807227Y-85199562D01*
X178451899Y-85367620D01*
X178114763Y-85569692D01*
X177799043Y-85803846D01*
X177507807Y-86067807D01*
X177243846Y-86359043D01*
X177009692Y-86674763D01*
X176807620Y-87011899D01*
X176639562Y-87367227D01*
X176639561Y-87367229D01*
X176507143Y-87737315D01*
X176411637Y-88118593D01*
X176361932Y-88453682D01*
X176353962Y-88507409D01*
X176334675Y-88900000D01*
X153865325Y-88900000D01*
X153846038Y-88507409D01*
X153788364Y-88118600D01*
X153692857Y-87737316D01*
X153560438Y-87367228D01*
X153392381Y-87011903D01*
X153190306Y-86674761D01*
X152956158Y-86359049D01*
X152956153Y-86359043D01*
X152692192Y-86067807D01*
X152400956Y-85803846D01*
X152116164Y-85592630D01*
X152085239Y-85569694D01*
X152085236Y-85569692D01*
X151748100Y-85367620D01*
X151392772Y-85199562D01*
X151392770Y-85199561D01*
X151022684Y-85067143D01*
X150641406Y-84971637D01*
X150641401Y-84971636D01*
X150641400Y-84971636D01*
X150497256Y-84950254D01*
X150252599Y-84913963D01*
X150252597Y-84913962D01*
X150252591Y-84913962D01*
X149860000Y-84894675D01*
X149467409Y-84913962D01*
X149467403Y-84913962D01*
X149467400Y-84913963D01*
X149078593Y-84971637D01*
X148697315Y-85067143D01*
X148327229Y-85199561D01*
X148327227Y-85199562D01*
X147971899Y-85367620D01*
X147634763Y-85569692D01*
X147319043Y-85803846D01*
X147027807Y-86067807D01*
X146763846Y-86359043D01*
X146529692Y-86674763D01*
X146327620Y-87011899D01*
X146159562Y-87367227D01*
X146159561Y-87367229D01*
X146027143Y-87737315D01*
X145931637Y-88118593D01*
X145881932Y-88453682D01*
X145873962Y-88507409D01*
X145854675Y-88900000D01*
X143545468Y-88900000D01*
X143525635Y-88673308D01*
X143466739Y-88453504D01*
X143370568Y-88247266D01*
X143240047Y-88060861D01*
X143240045Y-88060858D01*
X143079141Y-87899954D01*
X142892734Y-87769432D01*
X142892732Y-87769431D01*
X142686497Y-87673261D01*
X142686488Y-87673258D01*
X142466697Y-87614366D01*
X142466693Y-87614365D01*
X142466692Y-87614365D01*
X142466691Y-87614364D01*
X142466686Y-87614364D01*
X142240002Y-87594532D01*
X142239998Y-87594532D01*
X142013313Y-87614364D01*
X142013302Y-87614366D01*
X141793511Y-87673258D01*
X141793502Y-87673261D01*
X141587267Y-87769431D01*
X141587265Y-87769432D01*
X141400858Y-87899954D01*
X141239954Y-88060858D01*
X141109432Y-88247265D01*
X141109431Y-88247267D01*
X141082382Y-88305275D01*
X141036209Y-88357714D01*
X140969016Y-88376866D01*
X140902135Y-88356650D01*
X140857618Y-88305275D01*
X140830686Y-88247520D01*
X140830568Y-88247266D01*
X140700047Y-88060861D01*
X140700045Y-88060858D01*
X140539141Y-87899954D01*
X140352734Y-87769432D01*
X140352732Y-87769431D01*
X140146497Y-87673261D01*
X140146488Y-87673258D01*
X139926697Y-87614366D01*
X139926693Y-87614365D01*
X139926692Y-87614365D01*
X139926691Y-87614364D01*
X139926686Y-87614364D01*
X139700002Y-87594532D01*
X139699998Y-87594532D01*
X139473313Y-87614364D01*
X139473302Y-87614366D01*
X139253511Y-87673258D01*
X139253502Y-87673261D01*
X139047267Y-87769431D01*
X139047265Y-87769432D01*
X138860858Y-87899954D01*
X138699954Y-88060858D01*
X138569432Y-88247265D01*
X138569431Y-88247267D01*
X138542382Y-88305275D01*
X138496209Y-88357714D01*
X138429016Y-88376866D01*
X138362135Y-88356650D01*
X138317618Y-88305275D01*
X138290686Y-88247520D01*
X138290568Y-88247266D01*
X138160047Y-88060861D01*
X138160045Y-88060858D01*
X137999141Y-87899954D01*
X137812734Y-87769432D01*
X137812732Y-87769431D01*
X137606497Y-87673261D01*
X137606488Y-87673258D01*
X137386697Y-87614366D01*
X137386693Y-87614365D01*
X137386692Y-87614365D01*
X137386691Y-87614364D01*
X137386686Y-87614364D01*
X137160002Y-87594532D01*
X137159998Y-87594532D01*
X136933313Y-87614364D01*
X136933302Y-87614366D01*
X136713511Y-87673258D01*
X136713502Y-87673261D01*
X136507267Y-87769431D01*
X136507265Y-87769432D01*
X136320858Y-87899954D01*
X136159954Y-88060858D01*
X136029432Y-88247265D01*
X136029431Y-88247267D01*
X136002382Y-88305275D01*
X135956209Y-88357714D01*
X135889016Y-88376866D01*
X135822135Y-88356650D01*
X135777618Y-88305275D01*
X135750686Y-88247520D01*
X135750568Y-88247266D01*
X135620047Y-88060861D01*
X135620045Y-88060858D01*
X135459141Y-87899954D01*
X135272734Y-87769432D01*
X135272732Y-87769431D01*
X135066497Y-87673261D01*
X135066488Y-87673258D01*
X134846697Y-87614366D01*
X134846693Y-87614365D01*
X134846692Y-87614365D01*
X134846691Y-87614364D01*
X134846686Y-87614364D01*
X134620002Y-87594532D01*
X134619998Y-87594532D01*
X134393313Y-87614364D01*
X134393302Y-87614366D01*
X134173511Y-87673258D01*
X134173502Y-87673261D01*
X133967267Y-87769431D01*
X133967265Y-87769432D01*
X133780858Y-87899954D01*
X133619954Y-88060858D01*
X133489432Y-88247265D01*
X133489431Y-88247267D01*
X133462382Y-88305275D01*
X133416209Y-88357714D01*
X133349016Y-88376866D01*
X133282135Y-88356650D01*
X133237618Y-88305275D01*
X133210686Y-88247520D01*
X133210568Y-88247266D01*
X133080047Y-88060861D01*
X133080045Y-88060858D01*
X132919141Y-87899954D01*
X132732734Y-87769432D01*
X132732732Y-87769431D01*
X132526497Y-87673261D01*
X132526488Y-87673258D01*
X132306697Y-87614366D01*
X132306693Y-87614365D01*
X132306692Y-87614365D01*
X132306691Y-87614364D01*
X132306686Y-87614364D01*
X132080002Y-87594532D01*
X132079998Y-87594532D01*
X131853313Y-87614364D01*
X131853302Y-87614366D01*
X131633511Y-87673258D01*
X131633502Y-87673261D01*
X131427267Y-87769431D01*
X131427265Y-87769432D01*
X131240858Y-87899954D01*
X131079954Y-88060858D01*
X130949432Y-88247265D01*
X130949431Y-88247267D01*
X130922382Y-88305275D01*
X130876209Y-88357714D01*
X130809016Y-88376866D01*
X130742135Y-88356650D01*
X130697618Y-88305275D01*
X130670686Y-88247520D01*
X130670568Y-88247266D01*
X130540047Y-88060861D01*
X130540045Y-88060858D01*
X130379141Y-87899954D01*
X130192734Y-87769432D01*
X130192732Y-87769431D01*
X129986497Y-87673261D01*
X129986488Y-87673258D01*
X129766697Y-87614366D01*
X129766693Y-87614365D01*
X129766692Y-87614365D01*
X129766691Y-87614364D01*
X129766686Y-87614364D01*
X129540002Y-87594532D01*
X129539998Y-87594532D01*
X129313313Y-87614364D01*
X129313302Y-87614366D01*
X129093511Y-87673258D01*
X129093502Y-87673261D01*
X128887267Y-87769431D01*
X128887265Y-87769432D01*
X128700858Y-87899954D01*
X128539954Y-88060858D01*
X128409432Y-88247265D01*
X128409431Y-88247267D01*
X128382382Y-88305275D01*
X128336209Y-88357714D01*
X128269016Y-88376866D01*
X128202135Y-88356650D01*
X128157618Y-88305275D01*
X128130686Y-88247520D01*
X128130568Y-88247266D01*
X128000047Y-88060861D01*
X128000045Y-88060858D01*
X127839141Y-87899954D01*
X127652734Y-87769432D01*
X127652732Y-87769431D01*
X127446497Y-87673261D01*
X127446488Y-87673258D01*
X127226697Y-87614366D01*
X127226693Y-87614365D01*
X127226692Y-87614365D01*
X127226691Y-87614364D01*
X127226686Y-87614364D01*
X127000002Y-87594532D01*
X126999998Y-87594532D01*
X126773313Y-87614364D01*
X126773302Y-87614366D01*
X126553511Y-87673258D01*
X126553502Y-87673261D01*
X126347267Y-87769431D01*
X126347265Y-87769432D01*
X126160858Y-87899954D01*
X125999954Y-88060858D01*
X125869432Y-88247265D01*
X125869431Y-88247267D01*
X125842382Y-88305275D01*
X125796209Y-88357714D01*
X125729016Y-88376866D01*
X125662135Y-88356650D01*
X125617618Y-88305275D01*
X125590686Y-88247520D01*
X125590568Y-88247266D01*
X125460047Y-88060861D01*
X125460045Y-88060858D01*
X125299141Y-87899954D01*
X125112734Y-87769432D01*
X125112732Y-87769431D01*
X124906497Y-87673261D01*
X124906488Y-87673258D01*
X124686697Y-87614366D01*
X124686693Y-87614365D01*
X124686692Y-87614365D01*
X124686691Y-87614364D01*
X124686686Y-87614364D01*
X124460002Y-87594532D01*
X124459998Y-87594532D01*
X124233313Y-87614364D01*
X124233302Y-87614366D01*
X124013511Y-87673258D01*
X124013502Y-87673261D01*
X123807267Y-87769431D01*
X123807265Y-87769432D01*
X123620858Y-87899954D01*
X123459954Y-88060858D01*
X123329433Y-88247264D01*
X123329432Y-88247266D01*
X123329315Y-88247518D01*
X123302106Y-88305867D01*
X123255933Y-88358306D01*
X123188739Y-88377457D01*
X123121858Y-88357241D01*
X123077342Y-88305865D01*
X123050135Y-88247520D01*
X123050134Y-88247518D01*
X122919657Y-88061179D01*
X122758820Y-87900342D01*
X122572482Y-87769865D01*
X122366328Y-87673734D01*
X122170000Y-87621127D01*
X122170000Y-88584314D01*
X122165606Y-88579920D01*
X122074394Y-88527259D01*
X121972661Y-88500000D01*
X121867339Y-88500000D01*
X121765606Y-88527259D01*
X121674394Y-88579920D01*
X121670000Y-88584314D01*
X121670000Y-87621127D01*
X121473671Y-87673734D01*
X121267517Y-87769865D01*
X121081179Y-87900342D01*
X120920342Y-88061179D01*
X120789865Y-88247517D01*
X120693734Y-88453673D01*
X120693730Y-88453682D01*
X120641127Y-88649999D01*
X96520000Y-88649999D01*
X96520000Y-85089995D01*
X99894732Y-85089995D01*
X99894732Y-85090004D01*
X99913777Y-85344154D01*
X99913778Y-85344157D01*
X99970492Y-85592637D01*
X100063607Y-85829888D01*
X100191041Y-86050612D01*
X100349950Y-86249877D01*
X100536783Y-86423232D01*
X100747366Y-86566805D01*
X100747371Y-86566807D01*
X100747372Y-86566808D01*
X100747373Y-86566809D01*
X100869328Y-86625538D01*
X100976992Y-86677387D01*
X100976993Y-86677387D01*
X100976996Y-86677389D01*
X101220542Y-86752513D01*
X101472565Y-86790500D01*
X101727435Y-86790500D01*
X101979458Y-86752513D01*
X102223004Y-86677389D01*
X102452634Y-86566805D01*
X102663217Y-86423232D01*
X102850050Y-86249877D01*
X103008959Y-86050612D01*
X103136393Y-85829888D01*
X103229508Y-85592637D01*
X103286222Y-85344157D01*
X103302610Y-85125468D01*
X103305268Y-85090004D01*
X103305268Y-85089995D01*
X103286222Y-84835845D01*
X103282616Y-84820047D01*
X103229508Y-84587363D01*
X103136393Y-84350112D01*
X103008959Y-84129388D01*
X102850050Y-83930123D01*
X102731363Y-83819998D01*
X161254532Y-83819998D01*
X161254532Y-83820001D01*
X161274364Y-84046686D01*
X161274366Y-84046697D01*
X161333258Y-84266488D01*
X161333261Y-84266497D01*
X161429431Y-84472732D01*
X161429432Y-84472734D01*
X161559954Y-84659141D01*
X161720858Y-84820045D01*
X161720861Y-84820047D01*
X161907266Y-84950568D01*
X162113504Y-85046739D01*
X162333308Y-85105635D01*
X162495230Y-85119801D01*
X162559998Y-85125468D01*
X162560000Y-85125468D01*
X162560002Y-85125468D01*
X162616807Y-85120498D01*
X162786692Y-85105635D01*
X163006496Y-85046739D01*
X163212734Y-84950568D01*
X163399139Y-84820047D01*
X163560047Y-84659139D01*
X163690568Y-84472734D01*
X163717618Y-84414724D01*
X163763790Y-84362285D01*
X163830983Y-84343133D01*
X163897865Y-84363348D01*
X163942382Y-84414725D01*
X163969429Y-84472728D01*
X163969432Y-84472734D01*
X164099954Y-84659141D01*
X164260858Y-84820045D01*
X164260861Y-84820047D01*
X164447266Y-84950568D01*
X164653504Y-85046739D01*
X164873308Y-85105635D01*
X165035230Y-85119801D01*
X165099998Y-85125468D01*
X165100000Y-85125468D01*
X165100002Y-85125468D01*
X165156807Y-85120498D01*
X165326692Y-85105635D01*
X165546496Y-85046739D01*
X165752734Y-84950568D01*
X165939139Y-84820047D01*
X166100047Y-84659139D01*
X166230568Y-84472734D01*
X166257618Y-84414724D01*
X166303790Y-84362285D01*
X166370983Y-84343133D01*
X166437865Y-84363348D01*
X166482382Y-84414725D01*
X166509429Y-84472728D01*
X166509432Y-84472734D01*
X166639954Y-84659141D01*
X166800858Y-84820045D01*
X166800861Y-84820047D01*
X166987266Y-84950568D01*
X167193504Y-85046739D01*
X167413308Y-85105635D01*
X167575230Y-85119801D01*
X167639998Y-85125468D01*
X167640000Y-85125468D01*
X167640002Y-85125468D01*
X167696807Y-85120498D01*
X167866692Y-85105635D01*
X168086496Y-85046739D01*
X168292734Y-84950568D01*
X168479139Y-84820047D01*
X168640047Y-84659139D01*
X168770568Y-84472734D01*
X168797618Y-84414724D01*
X168843790Y-84362285D01*
X168910983Y-84343133D01*
X168977865Y-84363348D01*
X169022382Y-84414725D01*
X169049429Y-84472728D01*
X169049432Y-84472734D01*
X169179954Y-84659141D01*
X169340858Y-84820045D01*
X169340861Y-84820047D01*
X169527266Y-84950568D01*
X169733504Y-85046739D01*
X169953308Y-85105635D01*
X170115230Y-85119801D01*
X170179998Y-85125468D01*
X170180000Y-85125468D01*
X170180002Y-85125468D01*
X170236807Y-85120498D01*
X170406692Y-85105635D01*
X170626496Y-85046739D01*
X170832734Y-84950568D01*
X171019139Y-84820047D01*
X171180047Y-84659139D01*
X171197272Y-84634539D01*
X171251848Y-84590913D01*
X171321346Y-84583718D01*
X171383701Y-84615239D01*
X171419116Y-84675468D01*
X171422138Y-84692406D01*
X171425908Y-84727483D01*
X171476202Y-84862328D01*
X171476206Y-84862335D01*
X171562452Y-84977544D01*
X171562455Y-84977547D01*
X171677664Y-85063793D01*
X171677671Y-85063797D01*
X171812517Y-85114091D01*
X171812516Y-85114091D01*
X171819444Y-85114835D01*
X171872127Y-85120500D01*
X173567872Y-85120499D01*
X173627483Y-85114091D01*
X173762331Y-85063796D01*
X173877546Y-84977546D01*
X173963796Y-84862331D01*
X174014091Y-84727483D01*
X174020500Y-84667873D01*
X174020499Y-82972128D01*
X174014091Y-82912517D01*
X173979567Y-82819954D01*
X173963797Y-82777671D01*
X173963793Y-82777664D01*
X173877547Y-82662455D01*
X173877544Y-82662452D01*
X173762335Y-82576206D01*
X173762328Y-82576202D01*
X173627482Y-82525908D01*
X173627483Y-82525908D01*
X173567883Y-82519501D01*
X173567881Y-82519500D01*
X173567873Y-82519500D01*
X173567864Y-82519500D01*
X171872129Y-82519500D01*
X171872123Y-82519501D01*
X171812516Y-82525908D01*
X171677671Y-82576202D01*
X171677664Y-82576206D01*
X171562455Y-82662452D01*
X171562452Y-82662455D01*
X171476206Y-82777664D01*
X171476202Y-82777671D01*
X171425908Y-82912516D01*
X171422137Y-82947596D01*
X171395398Y-83012146D01*
X171338006Y-83051994D01*
X171268180Y-83054487D01*
X171208092Y-83018834D01*
X171197273Y-83005462D01*
X171180045Y-82980858D01*
X171019141Y-82819954D01*
X170832734Y-82689432D01*
X170832732Y-82689431D01*
X170626497Y-82593261D01*
X170626488Y-82593258D01*
X170406697Y-82534366D01*
X170406693Y-82534365D01*
X170406692Y-82534365D01*
X170406691Y-82534364D01*
X170406686Y-82534364D01*
X170180002Y-82514532D01*
X170179998Y-82514532D01*
X169953313Y-82534364D01*
X169953302Y-82534366D01*
X169733511Y-82593258D01*
X169733502Y-82593261D01*
X169527267Y-82689431D01*
X169527265Y-82689432D01*
X169340858Y-82819954D01*
X169179954Y-82980858D01*
X169049432Y-83167265D01*
X169049431Y-83167267D01*
X169022382Y-83225275D01*
X168976209Y-83277714D01*
X168909016Y-83296866D01*
X168842135Y-83276650D01*
X168797618Y-83225275D01*
X168770568Y-83167267D01*
X168770567Y-83167265D01*
X168640045Y-82980858D01*
X168479141Y-82819954D01*
X168292734Y-82689432D01*
X168292732Y-82689431D01*
X168086497Y-82593261D01*
X168086488Y-82593258D01*
X167866697Y-82534366D01*
X167866693Y-82534365D01*
X167866692Y-82534365D01*
X167866691Y-82534364D01*
X167866686Y-82534364D01*
X167640002Y-82514532D01*
X167639998Y-82514532D01*
X167413313Y-82534364D01*
X167413302Y-82534366D01*
X167193511Y-82593258D01*
X167193502Y-82593261D01*
X166987267Y-82689431D01*
X166987265Y-82689432D01*
X166800858Y-82819954D01*
X166639954Y-82980858D01*
X166509432Y-83167265D01*
X166509431Y-83167267D01*
X166482382Y-83225275D01*
X166436209Y-83277714D01*
X166369016Y-83296866D01*
X166302135Y-83276650D01*
X166257618Y-83225275D01*
X166230568Y-83167267D01*
X166230567Y-83167265D01*
X166100045Y-82980858D01*
X165939141Y-82819954D01*
X165752734Y-82689432D01*
X165752732Y-82689431D01*
X165546497Y-82593261D01*
X165546488Y-82593258D01*
X165326697Y-82534366D01*
X165326693Y-82534365D01*
X165326692Y-82534365D01*
X165326691Y-82534364D01*
X165326686Y-82534364D01*
X165100002Y-82514532D01*
X165099998Y-82514532D01*
X164873313Y-82534364D01*
X164873302Y-82534366D01*
X164653511Y-82593258D01*
X164653502Y-82593261D01*
X164447267Y-82689431D01*
X164447265Y-82689432D01*
X164260858Y-82819954D01*
X164099954Y-82980858D01*
X163969432Y-83167265D01*
X163969431Y-83167267D01*
X163942382Y-83225275D01*
X163896209Y-83277714D01*
X163829016Y-83296866D01*
X163762135Y-83276650D01*
X163717618Y-83225275D01*
X163690568Y-83167267D01*
X163690567Y-83167265D01*
X163560045Y-82980858D01*
X163399141Y-82819954D01*
X163212734Y-82689432D01*
X163212732Y-82689431D01*
X163006497Y-82593261D01*
X163006488Y-82593258D01*
X162786697Y-82534366D01*
X162786693Y-82534365D01*
X162786692Y-82534365D01*
X162786691Y-82534364D01*
X162786686Y-82534364D01*
X162560002Y-82514532D01*
X162559998Y-82514532D01*
X162333313Y-82534364D01*
X162333302Y-82534366D01*
X162113511Y-82593258D01*
X162113502Y-82593261D01*
X161907267Y-82689431D01*
X161907265Y-82689432D01*
X161720858Y-82819954D01*
X161559954Y-82980858D01*
X161429432Y-83167265D01*
X161429431Y-83167267D01*
X161333261Y-83373502D01*
X161333258Y-83373511D01*
X161274366Y-83593302D01*
X161274364Y-83593313D01*
X161254532Y-83819998D01*
X102731363Y-83819998D01*
X102663217Y-83756768D01*
X102452634Y-83613195D01*
X102452630Y-83613193D01*
X102452627Y-83613191D01*
X102452626Y-83613190D01*
X102223006Y-83502612D01*
X102223008Y-83502612D01*
X101979466Y-83427489D01*
X101979462Y-83427488D01*
X101979458Y-83427487D01*
X101858231Y-83409214D01*
X101727440Y-83389500D01*
X101727435Y-83389500D01*
X101472565Y-83389500D01*
X101472559Y-83389500D01*
X101315609Y-83413157D01*
X101220542Y-83427487D01*
X101220539Y-83427488D01*
X101220533Y-83427489D01*
X100976992Y-83502612D01*
X100747373Y-83613190D01*
X100747372Y-83613191D01*
X100536782Y-83756768D01*
X100349952Y-83930121D01*
X100349950Y-83930123D01*
X100191041Y-84129388D01*
X100063608Y-84350109D01*
X99970492Y-84587362D01*
X99970490Y-84587369D01*
X99913777Y-84835845D01*
X99894732Y-85089995D01*
X96520000Y-85089995D01*
X96520000Y-81279998D01*
X120614532Y-81279998D01*
X120614532Y-81280001D01*
X120634364Y-81506686D01*
X120634366Y-81506697D01*
X120693258Y-81726488D01*
X120693261Y-81726497D01*
X120789431Y-81932732D01*
X120789432Y-81932734D01*
X120919954Y-82119141D01*
X121080858Y-82280045D01*
X121080861Y-82280047D01*
X121267266Y-82410568D01*
X121473504Y-82506739D01*
X121693308Y-82565635D01*
X121855230Y-82579801D01*
X121919998Y-82585468D01*
X121920000Y-82585468D01*
X121920002Y-82585468D01*
X121976807Y-82580498D01*
X122146692Y-82565635D01*
X122366496Y-82506739D01*
X122572734Y-82410568D01*
X122759139Y-82280047D01*
X122920047Y-82119139D01*
X123050568Y-81932734D01*
X123077895Y-81874129D01*
X123124064Y-81821695D01*
X123191257Y-81802542D01*
X123258139Y-81822757D01*
X123302657Y-81874133D01*
X123329865Y-81932482D01*
X123460342Y-82118820D01*
X123621179Y-82279657D01*
X123807517Y-82410134D01*
X124013673Y-82506265D01*
X124013682Y-82506269D01*
X124209999Y-82558872D01*
X124210000Y-82558871D01*
X124210000Y-81595686D01*
X124214394Y-81600080D01*
X124305606Y-81652741D01*
X124407339Y-81680000D01*
X124512661Y-81680000D01*
X124614394Y-81652741D01*
X124705606Y-81600080D01*
X124710000Y-81595686D01*
X124710000Y-82558872D01*
X124906317Y-82506269D01*
X124906326Y-82506265D01*
X125112482Y-82410134D01*
X125298820Y-82279657D01*
X125459657Y-82118820D01*
X125590134Y-81932481D01*
X125590135Y-81932479D01*
X125617618Y-81873543D01*
X125663790Y-81821103D01*
X125730983Y-81801951D01*
X125797864Y-81822166D01*
X125842382Y-81873543D01*
X125869864Y-81932479D01*
X125869865Y-81932481D01*
X126000342Y-82118820D01*
X126161179Y-82279657D01*
X126347517Y-82410134D01*
X126553673Y-82506265D01*
X126553682Y-82506269D01*
X126749999Y-82558872D01*
X126750000Y-82558871D01*
X126750000Y-81595686D01*
X126754394Y-81600080D01*
X126845606Y-81652741D01*
X126947339Y-81680000D01*
X127052661Y-81680000D01*
X127154394Y-81652741D01*
X127245606Y-81600080D01*
X127250000Y-81595686D01*
X127250000Y-82558872D01*
X127446317Y-82506269D01*
X127446326Y-82506265D01*
X127652482Y-82410134D01*
X127838820Y-82279657D01*
X127999657Y-82118820D01*
X128130134Y-81932481D01*
X128130135Y-81932479D01*
X128157618Y-81873543D01*
X128203790Y-81821103D01*
X128270983Y-81801951D01*
X128337864Y-81822166D01*
X128382382Y-81873543D01*
X128409864Y-81932479D01*
X128409865Y-81932481D01*
X128540342Y-82118820D01*
X128701179Y-82279657D01*
X128887517Y-82410134D01*
X129093673Y-82506265D01*
X129093682Y-82506269D01*
X129289999Y-82558872D01*
X129290000Y-82558871D01*
X129290000Y-81595686D01*
X129294394Y-81600080D01*
X129385606Y-81652741D01*
X129487339Y-81680000D01*
X129592661Y-81680000D01*
X129694394Y-81652741D01*
X129785606Y-81600080D01*
X129790000Y-81595686D01*
X129790000Y-82558872D01*
X129986317Y-82506269D01*
X129986326Y-82506265D01*
X130192482Y-82410134D01*
X130378820Y-82279657D01*
X130539657Y-82118820D01*
X130670134Y-81932481D01*
X130670135Y-81932479D01*
X130697618Y-81873543D01*
X130743790Y-81821103D01*
X130810983Y-81801951D01*
X130877864Y-81822166D01*
X130922382Y-81873543D01*
X130949864Y-81932479D01*
X130949865Y-81932481D01*
X131080342Y-82118820D01*
X131241179Y-82279657D01*
X131427517Y-82410134D01*
X131633673Y-82506265D01*
X131633682Y-82506269D01*
X131829999Y-82558872D01*
X131830000Y-82558871D01*
X131830000Y-81595686D01*
X131834394Y-81600080D01*
X131925606Y-81652741D01*
X132027339Y-81680000D01*
X132132661Y-81680000D01*
X132234394Y-81652741D01*
X132325606Y-81600080D01*
X132330000Y-81595686D01*
X132330000Y-82558872D01*
X132526317Y-82506269D01*
X132526326Y-82506265D01*
X132732482Y-82410134D01*
X132918820Y-82279657D01*
X133079657Y-82118820D01*
X133210134Y-81932481D01*
X133210135Y-81932479D01*
X133237618Y-81873543D01*
X133283790Y-81821103D01*
X133350983Y-81801951D01*
X133417864Y-81822166D01*
X133462382Y-81873543D01*
X133489864Y-81932479D01*
X133489865Y-81932481D01*
X133620342Y-82118820D01*
X133781179Y-82279657D01*
X133967517Y-82410134D01*
X134173673Y-82506265D01*
X134173682Y-82506269D01*
X134369999Y-82558872D01*
X134370000Y-82558871D01*
X134370000Y-81595686D01*
X134374394Y-81600080D01*
X134465606Y-81652741D01*
X134567339Y-81680000D01*
X134672661Y-81680000D01*
X134774394Y-81652741D01*
X134865606Y-81600080D01*
X134870000Y-81595686D01*
X134870000Y-82558872D01*
X135066317Y-82506269D01*
X135066326Y-82506265D01*
X135272482Y-82410134D01*
X135458820Y-82279657D01*
X135619657Y-82118820D01*
X135750132Y-81932484D01*
X135777341Y-81874134D01*
X135823513Y-81821695D01*
X135890707Y-81802542D01*
X135957588Y-81822757D01*
X136002106Y-81874133D01*
X136029431Y-81932732D01*
X136029432Y-81932734D01*
X136159954Y-82119141D01*
X136320858Y-82280045D01*
X136320861Y-82280047D01*
X136507266Y-82410568D01*
X136713504Y-82506739D01*
X136933308Y-82565635D01*
X137095230Y-82579801D01*
X137159998Y-82585468D01*
X137160000Y-82585468D01*
X137160002Y-82585468D01*
X137216807Y-82580498D01*
X137386692Y-82565635D01*
X137606496Y-82506739D01*
X137812734Y-82410568D01*
X137999139Y-82280047D01*
X138160047Y-82119139D01*
X138290568Y-81932734D01*
X138317618Y-81874724D01*
X138363790Y-81822285D01*
X138430983Y-81803133D01*
X138497865Y-81823348D01*
X138542382Y-81874725D01*
X138569429Y-81932728D01*
X138569432Y-81932734D01*
X138699954Y-82119141D01*
X138860858Y-82280045D01*
X138860861Y-82280047D01*
X139047266Y-82410568D01*
X139253504Y-82506739D01*
X139473308Y-82565635D01*
X139635230Y-82579801D01*
X139699998Y-82585468D01*
X139700000Y-82585468D01*
X139700002Y-82585468D01*
X139756807Y-82580498D01*
X139926692Y-82565635D01*
X140146496Y-82506739D01*
X140352734Y-82410568D01*
X140539139Y-82280047D01*
X140700047Y-82119139D01*
X140717272Y-82094539D01*
X140771848Y-82050913D01*
X140841346Y-82043718D01*
X140903701Y-82075239D01*
X140939116Y-82135468D01*
X140942138Y-82152406D01*
X140945908Y-82187483D01*
X140996202Y-82322328D01*
X140996206Y-82322335D01*
X141082452Y-82437544D01*
X141082455Y-82437547D01*
X141197664Y-82523793D01*
X141197671Y-82523797D01*
X141332517Y-82574091D01*
X141332516Y-82574091D01*
X141339444Y-82574835D01*
X141392127Y-82580500D01*
X143087872Y-82580499D01*
X143147483Y-82574091D01*
X143282331Y-82523796D01*
X143397546Y-82437546D01*
X143483796Y-82322331D01*
X143534091Y-82187483D01*
X143540500Y-82127873D01*
X143540499Y-80432128D01*
X143534091Y-80372517D01*
X143499567Y-80279954D01*
X143483797Y-80237671D01*
X143483793Y-80237664D01*
X143397547Y-80122455D01*
X143397544Y-80122452D01*
X143282335Y-80036206D01*
X143282328Y-80036202D01*
X143147488Y-79985910D01*
X143144387Y-79985178D01*
X143142228Y-79983949D01*
X143140215Y-79983198D01*
X143140336Y-79982871D01*
X143083670Y-79950606D01*
X143051283Y-79888696D01*
X143057507Y-79819104D01*
X143100368Y-79763925D01*
X143166257Y-79740678D01*
X143172899Y-79740500D01*
X144878542Y-79740500D01*
X144897870Y-79736655D01*
X144975188Y-79721275D01*
X145071836Y-79702051D01*
X145125165Y-79679961D01*
X145253914Y-79626632D01*
X145417782Y-79517139D01*
X145557139Y-79377782D01*
X145557140Y-79377779D01*
X145564206Y-79370714D01*
X145564208Y-79370710D01*
X146194924Y-78739994D01*
X173754357Y-78739994D01*
X173754357Y-78740005D01*
X173774890Y-78987812D01*
X173774892Y-78987824D01*
X173835936Y-79228881D01*
X173935826Y-79456606D01*
X174071833Y-79664782D01*
X174071836Y-79664785D01*
X174240256Y-79847738D01*
X174436491Y-80000474D01*
X174655190Y-80118828D01*
X174890386Y-80199571D01*
X175135665Y-80240500D01*
X175384335Y-80240500D01*
X175629614Y-80199571D01*
X175864810Y-80118828D01*
X176083509Y-80000474D01*
X176279744Y-79847738D01*
X176448164Y-79664785D01*
X176584173Y-79456607D01*
X176684063Y-79228881D01*
X176745108Y-78987821D01*
X176765564Y-78740956D01*
X176765643Y-78740005D01*
X176765643Y-78739994D01*
X178834357Y-78739994D01*
X178834357Y-78740005D01*
X178854890Y-78987812D01*
X178854892Y-78987824D01*
X178915936Y-79228881D01*
X179015826Y-79456606D01*
X179151833Y-79664782D01*
X179151836Y-79664785D01*
X179320256Y-79847738D01*
X179516491Y-80000474D01*
X179735190Y-80118828D01*
X179970386Y-80199571D01*
X180215665Y-80240500D01*
X180464335Y-80240500D01*
X180709614Y-80199571D01*
X180944810Y-80118828D01*
X181163509Y-80000474D01*
X181359744Y-79847738D01*
X181528164Y-79664785D01*
X181664173Y-79456607D01*
X181764063Y-79228881D01*
X181825108Y-78987821D01*
X181845564Y-78740956D01*
X181845643Y-78740005D01*
X181845643Y-78739994D01*
X181825109Y-78492187D01*
X181825107Y-78492175D01*
X181764063Y-78251118D01*
X181664173Y-78023393D01*
X181528166Y-77815217D01*
X181458463Y-77739500D01*
X181359744Y-77632262D01*
X181163509Y-77479526D01*
X181163507Y-77479525D01*
X181163506Y-77479524D01*
X180944811Y-77361172D01*
X180944802Y-77361169D01*
X180709616Y-77280429D01*
X180464335Y-77239500D01*
X180215665Y-77239500D01*
X179970383Y-77280429D01*
X179735197Y-77361169D01*
X179735188Y-77361172D01*
X179516493Y-77479524D01*
X179320257Y-77632261D01*
X179151833Y-77815217D01*
X179015826Y-78023393D01*
X178915936Y-78251118D01*
X178854892Y-78492175D01*
X178854890Y-78492187D01*
X178834357Y-78739994D01*
X176765643Y-78739994D01*
X176745109Y-78492187D01*
X176745107Y-78492175D01*
X176684063Y-78251118D01*
X176584173Y-78023393D01*
X176448166Y-77815217D01*
X176378463Y-77739500D01*
X176279744Y-77632262D01*
X176083509Y-77479526D01*
X176083507Y-77479525D01*
X176083506Y-77479524D01*
X175864811Y-77361172D01*
X175864802Y-77361169D01*
X175629616Y-77280429D01*
X175384335Y-77239500D01*
X175135665Y-77239500D01*
X174890383Y-77280429D01*
X174655197Y-77361169D01*
X174655188Y-77361172D01*
X174436493Y-77479524D01*
X174240257Y-77632261D01*
X174071833Y-77815217D01*
X173935826Y-78023393D01*
X173835936Y-78251118D01*
X173774892Y-78492175D01*
X173774890Y-78492187D01*
X173754357Y-78739994D01*
X146194924Y-78739994D01*
X150238101Y-74696819D01*
X150299424Y-74663334D01*
X150325782Y-74660500D01*
X175358543Y-74660500D01*
X175488582Y-74634632D01*
X175551835Y-74622051D01*
X175733914Y-74546632D01*
X175897782Y-74437139D01*
X176037139Y-74297782D01*
X176146632Y-74133914D01*
X176222051Y-73951835D01*
X176260500Y-73758541D01*
X176260500Y-73561459D01*
X176260500Y-73561456D01*
X176222052Y-73368170D01*
X176222051Y-73368169D01*
X176222051Y-73368165D01*
X176214780Y-73350611D01*
X176146635Y-73186092D01*
X176146628Y-73186079D01*
X176037139Y-73022218D01*
X176037136Y-73022214D01*
X175897785Y-72882863D01*
X175897781Y-72882860D01*
X175733920Y-72773371D01*
X175733907Y-72773364D01*
X175551839Y-72697950D01*
X175551829Y-72697947D01*
X175358543Y-72659500D01*
X175358541Y-72659500D01*
X149761459Y-72659500D01*
X149761455Y-72659500D01*
X149664812Y-72678724D01*
X149568167Y-72697947D01*
X149568161Y-72697949D01*
X149514834Y-72720037D01*
X149514834Y-72720038D01*
X149469315Y-72738892D01*
X149386089Y-72773366D01*
X149386079Y-72773371D01*
X149222219Y-72882859D01*
X149152540Y-72952538D01*
X149082861Y-73022218D01*
X149082858Y-73022221D01*
X144401899Y-77703181D01*
X144340576Y-77736666D01*
X144314218Y-77739500D01*
X121821457Y-77739500D01*
X121628170Y-77777947D01*
X121628160Y-77777950D01*
X121446092Y-77853364D01*
X121446079Y-77853371D01*
X121282218Y-77962860D01*
X121282214Y-77962863D01*
X121142863Y-78102214D01*
X121142860Y-78102218D01*
X121033371Y-78266079D01*
X121033364Y-78266092D01*
X120957950Y-78448160D01*
X120957947Y-78448170D01*
X120919500Y-78641456D01*
X120919500Y-80402410D01*
X120899815Y-80469449D01*
X120897076Y-80473532D01*
X120789431Y-80627267D01*
X120693261Y-80833502D01*
X120693258Y-80833511D01*
X120634366Y-81053302D01*
X120634364Y-81053313D01*
X120614532Y-81279998D01*
X96520000Y-81279998D01*
X96520000Y-76200000D01*
X105214675Y-76200000D01*
X105233962Y-76592591D01*
X105233962Y-76592597D01*
X105233963Y-76592599D01*
X105291637Y-76981406D01*
X105387143Y-77362684D01*
X105519561Y-77732770D01*
X105519562Y-77732772D01*
X105687620Y-78088100D01*
X105794297Y-78266079D01*
X105889694Y-78425239D01*
X106123140Y-78740005D01*
X106123846Y-78740956D01*
X106387807Y-79032192D01*
X106604820Y-79228881D01*
X106679049Y-79296158D01*
X106994761Y-79530306D01*
X106994763Y-79530307D01*
X107331899Y-79732379D01*
X107331902Y-79732380D01*
X107331903Y-79732381D01*
X107687228Y-79900438D01*
X108057316Y-80032857D01*
X108438600Y-80128364D01*
X108827409Y-80186038D01*
X109220000Y-80205325D01*
X109612591Y-80186038D01*
X110001400Y-80128364D01*
X110382684Y-80032857D01*
X110752772Y-79900438D01*
X111108097Y-79732381D01*
X111445239Y-79530306D01*
X111760951Y-79296158D01*
X112052192Y-79032192D01*
X112316158Y-78740951D01*
X112550306Y-78425239D01*
X112752381Y-78088097D01*
X112920438Y-77732772D01*
X113052857Y-77362684D01*
X113148364Y-76981400D01*
X113206038Y-76592591D01*
X113225325Y-76200000D01*
X113206038Y-75807409D01*
X113148364Y-75418600D01*
X113052857Y-75037316D01*
X112920438Y-74667228D01*
X112752381Y-74311903D01*
X112743917Y-74297782D01*
X112596909Y-74052513D01*
X112550306Y-73974761D01*
X112316158Y-73659049D01*
X112316153Y-73659043D01*
X112052192Y-73367807D01*
X111760956Y-73103846D01*
X111650897Y-73022221D01*
X111445239Y-72869694D01*
X111284529Y-72773368D01*
X111108100Y-72667620D01*
X110752772Y-72499562D01*
X110752770Y-72499561D01*
X110382684Y-72367143D01*
X110001406Y-72271637D01*
X110001401Y-72271636D01*
X110001400Y-72271636D01*
X109857256Y-72250254D01*
X109612599Y-72213963D01*
X109612597Y-72213962D01*
X109612591Y-72213962D01*
X109220000Y-72194675D01*
X108827409Y-72213962D01*
X108827403Y-72213962D01*
X108827400Y-72213963D01*
X108438593Y-72271637D01*
X108057315Y-72367143D01*
X107687229Y-72499561D01*
X107687227Y-72499562D01*
X107331899Y-72667620D01*
X106994763Y-72869692D01*
X106679043Y-73103846D01*
X106387807Y-73367807D01*
X106123846Y-73659043D01*
X105889692Y-73974763D01*
X105687620Y-74311899D01*
X105519562Y-74667227D01*
X105519561Y-74667229D01*
X105387143Y-75037315D01*
X105291637Y-75418593D01*
X105291636Y-75418600D01*
X105233962Y-75807409D01*
X105214675Y-76200000D01*
X96520000Y-76200000D01*
X96520000Y-72389995D01*
X99894732Y-72389995D01*
X99894732Y-72390004D01*
X99913777Y-72644154D01*
X99968260Y-72882861D01*
X99970492Y-72892637D01*
X100063607Y-73129888D01*
X100191041Y-73350612D01*
X100349950Y-73549877D01*
X100536783Y-73723232D01*
X100747366Y-73866805D01*
X100747371Y-73866807D01*
X100747372Y-73866808D01*
X100747373Y-73866809D01*
X100869328Y-73925538D01*
X100976992Y-73977387D01*
X100976993Y-73977387D01*
X100976996Y-73977389D01*
X101220542Y-74052513D01*
X101472565Y-74090500D01*
X101727435Y-74090500D01*
X101979458Y-74052513D01*
X102223004Y-73977389D01*
X102452634Y-73866805D01*
X102663217Y-73723232D01*
X102850050Y-73549877D01*
X103008959Y-73350612D01*
X103136393Y-73129888D01*
X103229508Y-72892637D01*
X103286222Y-72644157D01*
X103305268Y-72390000D01*
X103286222Y-72135843D01*
X103229508Y-71887363D01*
X103136393Y-71650112D01*
X103008959Y-71429388D01*
X102850050Y-71230123D01*
X102663217Y-71056768D01*
X102452634Y-70913195D01*
X102452630Y-70913193D01*
X102452627Y-70913191D01*
X102452626Y-70913190D01*
X102223006Y-70802612D01*
X102223008Y-70802612D01*
X101979466Y-70727489D01*
X101979462Y-70727488D01*
X101979458Y-70727487D01*
X101858231Y-70709214D01*
X101727440Y-70689500D01*
X101727435Y-70689500D01*
X101472565Y-70689500D01*
X101472559Y-70689500D01*
X101315609Y-70713157D01*
X101220542Y-70727487D01*
X101220539Y-70727488D01*
X101220533Y-70727489D01*
X100976992Y-70802612D01*
X100747373Y-70913190D01*
X100747372Y-70913191D01*
X100536782Y-71056768D01*
X100349952Y-71230121D01*
X100349950Y-71230123D01*
X100191041Y-71429388D01*
X100063608Y-71650109D01*
X99970492Y-71887362D01*
X99970490Y-71887369D01*
X99913777Y-72135845D01*
X99894732Y-72389995D01*
X96520000Y-72389995D01*
X96520000Y-66039994D01*
X100094357Y-66039994D01*
X100094357Y-66040005D01*
X100114890Y-66287812D01*
X100114892Y-66287824D01*
X100175936Y-66528881D01*
X100275826Y-66756606D01*
X100411833Y-66964782D01*
X100411836Y-66964785D01*
X100580256Y-67147738D01*
X100776491Y-67300474D01*
X100776493Y-67300475D01*
X100994332Y-67418364D01*
X100995190Y-67418828D01*
X101214141Y-67493994D01*
X101228964Y-67499083D01*
X101230386Y-67499571D01*
X101475665Y-67540500D01*
X101724335Y-67540500D01*
X101969614Y-67499571D01*
X102204810Y-67418828D01*
X102423509Y-67300474D01*
X102619744Y-67147738D01*
X102788164Y-66964785D01*
X102924173Y-66756607D01*
X103024063Y-66528881D01*
X103085108Y-66287821D01*
X103105643Y-66040000D01*
X103105643Y-66039994D01*
X110254357Y-66039994D01*
X110254357Y-66040005D01*
X110274890Y-66287812D01*
X110274892Y-66287824D01*
X110335936Y-66528881D01*
X110435826Y-66756606D01*
X110571833Y-66964782D01*
X110571836Y-66964785D01*
X110740256Y-67147738D01*
X110936491Y-67300474D01*
X110936493Y-67300475D01*
X111154332Y-67418364D01*
X111155190Y-67418828D01*
X111374141Y-67493994D01*
X111388964Y-67499083D01*
X111390386Y-67499571D01*
X111635665Y-67540500D01*
X111884335Y-67540500D01*
X112129614Y-67499571D01*
X112364810Y-67418828D01*
X112583509Y-67300474D01*
X112779744Y-67147738D01*
X112948164Y-66964785D01*
X113084173Y-66756607D01*
X113184063Y-66528881D01*
X113245108Y-66287821D01*
X113265643Y-66040000D01*
X113265643Y-66039994D01*
X117874357Y-66039994D01*
X117874357Y-66040005D01*
X117894890Y-66287812D01*
X117894892Y-66287824D01*
X117955936Y-66528881D01*
X118055826Y-66756606D01*
X118191833Y-66964782D01*
X118191836Y-66964785D01*
X118360256Y-67147738D01*
X118556491Y-67300474D01*
X118556493Y-67300475D01*
X118774332Y-67418364D01*
X118775190Y-67418828D01*
X118994141Y-67493994D01*
X119008964Y-67499083D01*
X119010386Y-67499571D01*
X119255665Y-67540500D01*
X119504335Y-67540500D01*
X119749614Y-67499571D01*
X119984810Y-67418828D01*
X120203509Y-67300474D01*
X120399744Y-67147738D01*
X120568164Y-66964785D01*
X120704173Y-66756607D01*
X120804063Y-66528881D01*
X120865108Y-66287821D01*
X120885643Y-66040000D01*
X120885643Y-66039994D01*
X125494357Y-66039994D01*
X125494357Y-66040005D01*
X125514890Y-66287812D01*
X125514892Y-66287824D01*
X125575936Y-66528881D01*
X125675826Y-66756606D01*
X125811833Y-66964782D01*
X125811836Y-66964785D01*
X125980256Y-67147738D01*
X126176491Y-67300474D01*
X126176493Y-67300475D01*
X126394332Y-67418364D01*
X126395190Y-67418828D01*
X126614141Y-67493994D01*
X126628964Y-67499083D01*
X126630386Y-67499571D01*
X126875665Y-67540500D01*
X127124335Y-67540500D01*
X127369614Y-67499571D01*
X127604810Y-67418828D01*
X127823509Y-67300474D01*
X128019744Y-67147738D01*
X128188164Y-66964785D01*
X128324173Y-66756607D01*
X128424063Y-66528881D01*
X128485108Y-66287821D01*
X128505643Y-66040000D01*
X128505643Y-66039994D01*
X135654357Y-66039994D01*
X135654357Y-66040005D01*
X135674890Y-66287812D01*
X135674892Y-66287824D01*
X135735936Y-66528881D01*
X135835826Y-66756606D01*
X135971833Y-66964782D01*
X135971836Y-66964785D01*
X136140256Y-67147738D01*
X136336491Y-67300474D01*
X136336493Y-67300475D01*
X136554332Y-67418364D01*
X136555190Y-67418828D01*
X136774141Y-67493994D01*
X136788964Y-67499083D01*
X136790386Y-67499571D01*
X137035665Y-67540500D01*
X137284335Y-67540500D01*
X137529614Y-67499571D01*
X137764810Y-67418828D01*
X137983509Y-67300474D01*
X138179744Y-67147738D01*
X138348164Y-66964785D01*
X138484173Y-66756607D01*
X138584063Y-66528881D01*
X138645108Y-66287821D01*
X138665643Y-66040000D01*
X138665643Y-66039994D01*
X143274357Y-66039994D01*
X143274357Y-66040005D01*
X143294890Y-66287812D01*
X143294892Y-66287824D01*
X143355936Y-66528881D01*
X143455826Y-66756606D01*
X143591833Y-66964782D01*
X143591836Y-66964785D01*
X143760256Y-67147738D01*
X143956491Y-67300474D01*
X143956493Y-67300475D01*
X144174332Y-67418364D01*
X144175190Y-67418828D01*
X144394141Y-67493994D01*
X144408964Y-67499083D01*
X144410386Y-67499571D01*
X144655665Y-67540500D01*
X144904335Y-67540500D01*
X145149614Y-67499571D01*
X145384810Y-67418828D01*
X145603509Y-67300474D01*
X145799744Y-67147738D01*
X145968164Y-66964785D01*
X146104173Y-66756607D01*
X146204063Y-66528881D01*
X146265108Y-66287821D01*
X146285643Y-66040000D01*
X146285643Y-66039994D01*
X150894357Y-66039994D01*
X150894357Y-66040005D01*
X150914890Y-66287812D01*
X150914892Y-66287824D01*
X150975936Y-66528881D01*
X151075826Y-66756606D01*
X151211833Y-66964782D01*
X151211836Y-66964785D01*
X151380256Y-67147738D01*
X151576491Y-67300474D01*
X151576493Y-67300475D01*
X151794332Y-67418364D01*
X151795190Y-67418828D01*
X152014141Y-67493994D01*
X152028964Y-67499083D01*
X152030386Y-67499571D01*
X152275665Y-67540500D01*
X152524335Y-67540500D01*
X152769614Y-67499571D01*
X153004810Y-67418828D01*
X153223509Y-67300474D01*
X153419744Y-67147738D01*
X153588164Y-66964785D01*
X153724173Y-66756607D01*
X153824063Y-66528881D01*
X153885108Y-66287821D01*
X153905643Y-66040000D01*
X153905643Y-66039994D01*
X166134357Y-66039994D01*
X166134357Y-66040005D01*
X166154890Y-66287812D01*
X166154892Y-66287824D01*
X166215936Y-66528881D01*
X166315826Y-66756606D01*
X166451833Y-66964782D01*
X166451836Y-66964785D01*
X166620256Y-67147738D01*
X166816491Y-67300474D01*
X166816493Y-67300475D01*
X167034332Y-67418364D01*
X167035190Y-67418828D01*
X167254141Y-67493994D01*
X167268964Y-67499083D01*
X167270386Y-67499571D01*
X167515665Y-67540500D01*
X167764335Y-67540500D01*
X168009614Y-67499571D01*
X168244810Y-67418828D01*
X168463509Y-67300474D01*
X168659744Y-67147738D01*
X168828164Y-66964785D01*
X168964173Y-66756607D01*
X169064063Y-66528881D01*
X169125108Y-66287821D01*
X169145643Y-66040000D01*
X169145643Y-66039994D01*
X173754357Y-66039994D01*
X173754357Y-66040005D01*
X173774890Y-66287812D01*
X173774892Y-66287824D01*
X173835936Y-66528881D01*
X173935826Y-66756606D01*
X174071833Y-66964782D01*
X174071836Y-66964785D01*
X174240256Y-67147738D01*
X174436491Y-67300474D01*
X174436493Y-67300475D01*
X174654332Y-67418364D01*
X174655190Y-67418828D01*
X174874141Y-67493994D01*
X174888964Y-67499083D01*
X174890386Y-67499571D01*
X175135665Y-67540500D01*
X175384335Y-67540500D01*
X175629614Y-67499571D01*
X175864810Y-67418828D01*
X176083509Y-67300474D01*
X176279744Y-67147738D01*
X176448164Y-66964785D01*
X176584173Y-66756607D01*
X176684063Y-66528881D01*
X176745108Y-66287821D01*
X176765643Y-66040000D01*
X176765643Y-66039994D01*
X181374859Y-66039994D01*
X181374859Y-66040005D01*
X181395385Y-66287729D01*
X181395387Y-66287738D01*
X181456412Y-66528717D01*
X181556266Y-66756364D01*
X181656564Y-66909882D01*
X182397037Y-66169409D01*
X182414075Y-66232993D01*
X182479901Y-66347007D01*
X182572993Y-66440099D01*
X182687007Y-66505925D01*
X182750590Y-66522962D01*
X182009942Y-67263609D01*
X182056768Y-67300055D01*
X182056770Y-67300056D01*
X182275385Y-67418364D01*
X182275396Y-67418369D01*
X182510506Y-67499083D01*
X182755707Y-67540000D01*
X183004293Y-67540000D01*
X183249493Y-67499083D01*
X183484603Y-67418369D01*
X183484614Y-67418364D01*
X183703228Y-67300057D01*
X183703231Y-67300055D01*
X183750056Y-67263609D01*
X183009409Y-66522962D01*
X183072993Y-66505925D01*
X183187007Y-66440099D01*
X183280099Y-66347007D01*
X183345925Y-66232993D01*
X183362962Y-66169410D01*
X184103434Y-66909882D01*
X184203731Y-66756369D01*
X184303587Y-66528717D01*
X184364612Y-66287738D01*
X184364614Y-66287729D01*
X184385141Y-66040005D01*
X184385141Y-66039994D01*
X184364614Y-65792270D01*
X184364612Y-65792261D01*
X184303587Y-65551282D01*
X184203731Y-65323630D01*
X184103434Y-65170116D01*
X183362962Y-65910589D01*
X183345925Y-65847007D01*
X183280099Y-65732993D01*
X183187007Y-65639901D01*
X183072993Y-65574075D01*
X183009410Y-65557037D01*
X183750057Y-64816390D01*
X183750056Y-64816389D01*
X183703229Y-64779943D01*
X183484614Y-64661635D01*
X183484603Y-64661630D01*
X183249493Y-64580916D01*
X183004293Y-64540000D01*
X182755707Y-64540000D01*
X182510506Y-64580916D01*
X182275396Y-64661630D01*
X182275390Y-64661632D01*
X182056761Y-64779949D01*
X182009942Y-64816388D01*
X182009942Y-64816390D01*
X182750590Y-65557037D01*
X182687007Y-65574075D01*
X182572993Y-65639901D01*
X182479901Y-65732993D01*
X182414075Y-65847007D01*
X182397037Y-65910589D01*
X181656564Y-65170116D01*
X181556267Y-65323632D01*
X181456412Y-65551282D01*
X181395387Y-65792261D01*
X181395385Y-65792270D01*
X181374859Y-66039994D01*
X176765643Y-66039994D01*
X176749651Y-65847007D01*
X176745109Y-65792187D01*
X176745107Y-65792175D01*
X176684063Y-65551118D01*
X176584173Y-65323393D01*
X176448166Y-65115217D01*
X176426557Y-65091744D01*
X176279744Y-64932262D01*
X176083509Y-64779526D01*
X176083507Y-64779525D01*
X176083506Y-64779524D01*
X175864811Y-64661172D01*
X175864802Y-64661169D01*
X175629616Y-64580429D01*
X175384335Y-64539500D01*
X175135665Y-64539500D01*
X174890383Y-64580429D01*
X174655197Y-64661169D01*
X174655188Y-64661172D01*
X174436493Y-64779524D01*
X174240257Y-64932261D01*
X174071833Y-65115217D01*
X173935826Y-65323393D01*
X173835936Y-65551118D01*
X173774892Y-65792175D01*
X173774890Y-65792187D01*
X173754357Y-66039994D01*
X169145643Y-66039994D01*
X169129651Y-65847007D01*
X169125109Y-65792187D01*
X169125107Y-65792175D01*
X169064063Y-65551118D01*
X168964173Y-65323393D01*
X168828166Y-65115217D01*
X168806557Y-65091744D01*
X168659744Y-64932262D01*
X168463509Y-64779526D01*
X168463507Y-64779525D01*
X168463506Y-64779524D01*
X168244811Y-64661172D01*
X168244802Y-64661169D01*
X168009616Y-64580429D01*
X167764335Y-64539500D01*
X167515665Y-64539500D01*
X167270383Y-64580429D01*
X167035197Y-64661169D01*
X167035188Y-64661172D01*
X166816493Y-64779524D01*
X166620257Y-64932261D01*
X166451833Y-65115217D01*
X166315826Y-65323393D01*
X166215936Y-65551118D01*
X166154892Y-65792175D01*
X166154890Y-65792187D01*
X166134357Y-66039994D01*
X153905643Y-66039994D01*
X153889651Y-65847007D01*
X153885109Y-65792187D01*
X153885107Y-65792175D01*
X153824063Y-65551118D01*
X153724173Y-65323393D01*
X153588166Y-65115217D01*
X153566557Y-65091744D01*
X153419744Y-64932262D01*
X153223509Y-64779526D01*
X153223507Y-64779525D01*
X153223506Y-64779524D01*
X153004811Y-64661172D01*
X153004802Y-64661169D01*
X152769616Y-64580429D01*
X152524335Y-64539500D01*
X152275665Y-64539500D01*
X152030383Y-64580429D01*
X151795197Y-64661169D01*
X151795188Y-64661172D01*
X151576493Y-64779524D01*
X151380257Y-64932261D01*
X151211833Y-65115217D01*
X151075826Y-65323393D01*
X150975936Y-65551118D01*
X150914892Y-65792175D01*
X150914890Y-65792187D01*
X150894357Y-66039994D01*
X146285643Y-66039994D01*
X146269651Y-65847007D01*
X146265109Y-65792187D01*
X146265107Y-65792175D01*
X146204063Y-65551118D01*
X146104173Y-65323393D01*
X145968166Y-65115217D01*
X145946557Y-65091744D01*
X145799744Y-64932262D01*
X145603509Y-64779526D01*
X145603507Y-64779525D01*
X145603506Y-64779524D01*
X145384811Y-64661172D01*
X145384802Y-64661169D01*
X145149616Y-64580429D01*
X144904335Y-64539500D01*
X144655665Y-64539500D01*
X144410383Y-64580429D01*
X144175197Y-64661169D01*
X144175188Y-64661172D01*
X143956493Y-64779524D01*
X143760257Y-64932261D01*
X143591833Y-65115217D01*
X143455826Y-65323393D01*
X143355936Y-65551118D01*
X143294892Y-65792175D01*
X143294890Y-65792187D01*
X143274357Y-66039994D01*
X138665643Y-66039994D01*
X138649651Y-65847007D01*
X138645109Y-65792187D01*
X138645107Y-65792175D01*
X138584063Y-65551118D01*
X138484173Y-65323393D01*
X138348166Y-65115217D01*
X138326557Y-65091744D01*
X138179744Y-64932262D01*
X137983509Y-64779526D01*
X137983507Y-64779525D01*
X137983506Y-64779524D01*
X137764811Y-64661172D01*
X137764802Y-64661169D01*
X137529616Y-64580429D01*
X137284335Y-64539500D01*
X137035665Y-64539500D01*
X136790383Y-64580429D01*
X136555197Y-64661169D01*
X136555188Y-64661172D01*
X136336493Y-64779524D01*
X136140257Y-64932261D01*
X135971833Y-65115217D01*
X135835826Y-65323393D01*
X135735936Y-65551118D01*
X135674892Y-65792175D01*
X135674890Y-65792187D01*
X135654357Y-66039994D01*
X128505643Y-66039994D01*
X128489651Y-65847007D01*
X128485109Y-65792187D01*
X128485107Y-65792175D01*
X128424063Y-65551118D01*
X128324173Y-65323393D01*
X128188166Y-65115217D01*
X128166557Y-65091744D01*
X128019744Y-64932262D01*
X127823509Y-64779526D01*
X127823507Y-64779525D01*
X127823506Y-64779524D01*
X127604811Y-64661172D01*
X127604802Y-64661169D01*
X127369616Y-64580429D01*
X127124335Y-64539500D01*
X126875665Y-64539500D01*
X126630383Y-64580429D01*
X126395197Y-64661169D01*
X126395188Y-64661172D01*
X126176493Y-64779524D01*
X125980257Y-64932261D01*
X125811833Y-65115217D01*
X125675826Y-65323393D01*
X125575936Y-65551118D01*
X125514892Y-65792175D01*
X125514890Y-65792187D01*
X125494357Y-66039994D01*
X120885643Y-66039994D01*
X120869651Y-65847007D01*
X120865109Y-65792187D01*
X120865107Y-65792175D01*
X120804063Y-65551118D01*
X120704173Y-65323393D01*
X120568166Y-65115217D01*
X120546557Y-65091744D01*
X120399744Y-64932262D01*
X120203509Y-64779526D01*
X120203507Y-64779525D01*
X120203506Y-64779524D01*
X119984811Y-64661172D01*
X119984802Y-64661169D01*
X119749616Y-64580429D01*
X119504335Y-64539500D01*
X119255665Y-64539500D01*
X119010383Y-64580429D01*
X118775197Y-64661169D01*
X118775188Y-64661172D01*
X118556493Y-64779524D01*
X118360257Y-64932261D01*
X118191833Y-65115217D01*
X118055826Y-65323393D01*
X117955936Y-65551118D01*
X117894892Y-65792175D01*
X117894890Y-65792187D01*
X117874357Y-66039994D01*
X113265643Y-66039994D01*
X113249651Y-65847007D01*
X113245109Y-65792187D01*
X113245107Y-65792175D01*
X113184063Y-65551118D01*
X113084173Y-65323393D01*
X112948166Y-65115217D01*
X112926557Y-65091744D01*
X112779744Y-64932262D01*
X112583509Y-64779526D01*
X112583507Y-64779525D01*
X112583506Y-64779524D01*
X112364811Y-64661172D01*
X112364802Y-64661169D01*
X112129616Y-64580429D01*
X111884335Y-64539500D01*
X111635665Y-64539500D01*
X111390383Y-64580429D01*
X111155197Y-64661169D01*
X111155188Y-64661172D01*
X110936493Y-64779524D01*
X110740257Y-64932261D01*
X110571833Y-65115217D01*
X110435826Y-65323393D01*
X110335936Y-65551118D01*
X110274892Y-65792175D01*
X110274890Y-65792187D01*
X110254357Y-66039994D01*
X103105643Y-66039994D01*
X103089651Y-65847007D01*
X103085109Y-65792187D01*
X103085107Y-65792175D01*
X103024063Y-65551118D01*
X102924173Y-65323393D01*
X102788166Y-65115217D01*
X102766557Y-65091744D01*
X102619744Y-64932262D01*
X102423509Y-64779526D01*
X102423507Y-64779525D01*
X102423506Y-64779524D01*
X102204811Y-64661172D01*
X102204802Y-64661169D01*
X101969616Y-64580429D01*
X101724335Y-64539500D01*
X101475665Y-64539500D01*
X101230383Y-64580429D01*
X100995197Y-64661169D01*
X100995188Y-64661172D01*
X100776493Y-64779524D01*
X100580257Y-64932261D01*
X100411833Y-65115217D01*
X100275826Y-65323393D01*
X100175936Y-65551118D01*
X100114892Y-65792175D01*
X100114890Y-65792187D01*
X100094357Y-66039994D01*
X96520000Y-66039994D01*
X96520000Y-61084000D01*
X96539685Y-61016961D01*
X96592489Y-60971206D01*
X96644000Y-60960000D01*
X187836000Y-60960000D01*
X187903039Y-60979685D01*
G37*
%TD.AperFunction*%
%TD*%
M02*
