%TF.GenerationSoftware,KiCad,Pcbnew,8.0.4*%
%TF.CreationDate,2025-09-03T21:54:05+09:00*%
%TF.ProjectId,3LED-3SW-BZ,334c4544-2d33-4535-972d-425a2e6b6963,rev?*%
%TF.SameCoordinates,Original*%
%TF.FileFunction,Soldermask,Bot*%
%TF.FilePolarity,Negative*%
%FSLAX46Y46*%
G04 Gerber Fmt 4.6, Leading zero omitted, Abs format (unit mm)*
G04 Created by KiCad (PCBNEW 8.0.4) date 2025-09-03 21:54:05*
%MOMM*%
%LPD*%
G01*
G04 APERTURE LIST*
%ADD10R,1.600000X1.600000*%
%ADD11O,1.600000X1.600000*%
%ADD12C,2.000000*%
%ADD13C,7.000000*%
%ADD14C,2.400000*%
%ADD15O,2.400000X2.400000*%
%ADD16R,2.000000X2.000000*%
%ADD17R,1.070000X1.800000*%
%ADD18O,1.070000X1.800000*%
G04 APERTURE END LIST*
D10*
%TO.C,U1*%
X142240000Y-81280000D03*
D11*
X139700000Y-81280000D03*
X137160000Y-81280000D03*
X134620000Y-81280000D03*
X132080000Y-81280000D03*
X129540000Y-81280000D03*
X127000000Y-81280000D03*
X124460000Y-81280000D03*
X121920000Y-81280000D03*
X121920000Y-88900000D03*
X124460000Y-88900000D03*
X127000000Y-88900000D03*
X129540000Y-88900000D03*
X132080000Y-88900000D03*
X134620000Y-88900000D03*
X137160000Y-88900000D03*
X139700000Y-88900000D03*
X142240000Y-88900000D03*
%TD*%
D12*
%TO.C,LED_G*%
X111760000Y-66040000D03*
%TD*%
%TO.C,SW1*%
X137160000Y-66040000D03*
%TD*%
%TO.C,SW1*%
X158190000Y-103850000D03*
X151690000Y-103850000D03*
X158190000Y-99350000D03*
X151690000Y-99350000D03*
%TD*%
D13*
%TO.C,REF\u002A\u002A*%
X101600000Y-124460000D03*
%TD*%
D12*
%TO.C,SW3*%
X183590000Y-103850000D03*
X177090000Y-103850000D03*
X183590000Y-99350000D03*
X177090000Y-99350000D03*
%TD*%
D10*
%TO.C,RN1*%
X172720000Y-83820000D03*
D11*
X170180000Y-83820000D03*
X167640000Y-83820000D03*
X165100000Y-83820000D03*
X162560000Y-83820000D03*
%TD*%
D12*
%TO.C,SW2*%
X170890000Y-103850000D03*
X164390000Y-103850000D03*
X170890000Y-99350000D03*
X164390000Y-99350000D03*
%TD*%
%TO.C,GND*%
X152400000Y-127000000D03*
%TD*%
%TO.C,5V*%
X180340000Y-78740000D03*
%TD*%
%TO.C,SW3*%
X152400000Y-66040000D03*
%TD*%
D13*
%TO.C,REF\u002A\u002A*%
X182880000Y-124460000D03*
%TD*%
D14*
%TO.C,R1*%
X137160000Y-97790000D03*
D15*
X137160000Y-110490000D03*
%TD*%
D12*
%TO.C,3.3V*%
X167640000Y-66040000D03*
%TD*%
D14*
%TO.C,R2*%
X132010000Y-97790000D03*
D15*
X132010000Y-110490000D03*
%TD*%
D12*
%TO.C,LED_R*%
X127000000Y-66040000D03*
%TD*%
%TO.C,TP4*%
X101600000Y-66040000D03*
%TD*%
%TO.C,LED_B*%
X119380000Y-66040000D03*
%TD*%
D14*
%TO.C,R3*%
X126860000Y-97790000D03*
D15*
X126860000Y-110490000D03*
%TD*%
D12*
%TO.C,3.3V*%
X175260000Y-78740000D03*
%TD*%
D13*
%TO.C,REF\u002A\u002A*%
X109220000Y-76200000D03*
%TD*%
D12*
%TO.C,5V*%
X175260000Y-66040000D03*
%TD*%
D13*
%TO.C,REF\u002A\u002A*%
X180340000Y-88900000D03*
%TD*%
D12*
%TO.C,SW2*%
X144780000Y-66040000D03*
%TD*%
D16*
%TO.C,BZ1*%
X101620000Y-99060000D03*
D12*
X109220000Y-99060000D03*
%TD*%
D13*
%TO.C,REF\u002A\u002A*%
X149860000Y-88900000D03*
%TD*%
D14*
%TO.C,R4*%
X101600000Y-72390000D03*
D15*
X101600000Y-85090000D03*
%TD*%
D12*
%TO.C,GND*%
X182880000Y-66040000D03*
%TD*%
D17*
%TO.C,D1*%
X129540000Y-124460000D03*
D18*
X130810000Y-124460000D03*
X132080000Y-124460000D03*
X133350000Y-124460000D03*
%TD*%
M02*
